<svg width="18" height="18" viewBox="0 0 18 18" fill="none" xmlns="http://www.w3.org/2000/svg">
<path fill-rule="evenodd" clip-rule="evenodd" d="M10.3077 14.7554C10.2595 14.7554 10.2098 14.7533 10.1602 14.7483C9.52723 14.6867 9.03092 14.2468 8.89425 13.627L6.96438 4.84936L4.97696 9.36994C4.86259 9.62919 4.60292 9.79706 4.31664 9.79706H2.15875C1.76098 9.79706 1.43945 9.47973 1.43945 9.08873C1.43945 8.69702 1.76098 8.3804 2.15875 8.3804H3.84478L5.64734 4.27986C5.90269 3.70186 6.46518 3.3654 7.10464 3.42844C7.73762 3.49006 8.23393 3.92994 8.3706 4.54973L10.3005 13.3274L12.2879 8.80681C12.4023 8.54756 12.6612 8.3804 12.9482 8.3804H15.1061C15.5039 8.3804 15.8254 8.69702 15.8254 9.08873C15.8254 9.47973 15.5039 9.79706 15.1061 9.79706H13.4201L11.6175 13.8969C11.3823 14.4303 10.8781 14.7554 10.3077 14.7554Z" fill="#231F20"/>
<mask id="mask0" mask-type="alpha" maskUnits="userSpaceOnUse" x="1" y="3" width="15" height="12">
<path fill-rule="evenodd" clip-rule="evenodd" d="M10.3077 14.7554C10.2595 14.7554 10.2098 14.7533 10.1602 14.7483C9.52723 14.6867 9.03092 14.2468 8.89425 13.627L6.96438 4.84936L4.97696 9.36994C4.86259 9.62919 4.60292 9.79706 4.31664 9.79706H2.15875C1.76098 9.79706 1.43945 9.47973 1.43945 9.08873C1.43945 8.69702 1.76098 8.3804 2.15875 8.3804H3.84478L5.64734 4.27986C5.90269 3.70186 6.46518 3.3654 7.10464 3.42844C7.73762 3.49006 8.23393 3.92994 8.3706 4.54973L10.3005 13.3274L12.2879 8.80681C12.4023 8.54756 12.6612 8.3804 12.9482 8.3804H15.1061C15.5039 8.3804 15.8254 8.69702 15.8254 9.08873C15.8254 9.47973 15.5039 9.79706 15.1061 9.79706H13.4201L11.6175 13.8969C11.3823 14.4303 10.8781 14.7554 10.3077 14.7554Z" fill="white"/>
</mask>
<g mask="url(#mask0)">
<rect y="0.588379" width="17.2631" height="17" fill="#0D1C2E"/>
</g>
</svg>
