<svg width="18" height="17" viewBox="0 0 18 17" fill="none" xmlns="http://www.w3.org/2000/svg">
<path fill-rule="evenodd" clip-rule="evenodd" d="M7.09703 9.91667H10.167C10.5094 9.91667 10.7899 9.64042 10.7899 9.30325V9.11342C10.7899 8.77625 10.5094 8.5 10.167 8.5H7.09703C6.75392 8.5 6.47412 8.77625 6.47412 9.11342V9.30325C6.47412 9.64042 6.75392 9.91667 7.09703 9.91667ZM12.9477 12.75C12.9477 13.1403 12.6254 13.4583 12.2284 13.4583H5.03539C4.63906 13.4583 4.3161 13.1403 4.3161 12.75V6.375H12.9477V12.75ZM4.31609 3.54167H12.9477C13.3447 3.54167 13.667 3.85971 13.667 4.25C13.667 4.64029 13.3447 4.95833 12.9477 4.95833H4.31609C3.91976 4.95833 3.5968 4.64029 3.5968 4.25C3.5968 3.85971 3.91976 3.54167 4.31609 3.54167ZM15.1056 4.25C15.1056 3.07842 14.1374 2.125 12.9477 2.125H4.31609C3.12638 2.125 2.1582 3.07842 2.1582 4.25C2.1582 4.87546 2.43945 5.43292 2.8775 5.8225V12.75C2.8775 13.9216 3.84567 14.875 5.03539 14.875H12.2284C13.4181 14.875 14.3863 13.9216 14.3863 12.75V5.8225C14.8243 5.43292 15.1056 4.87546 15.1056 4.25Z" fill="#231F20"/>
<mask id="mask0" mask-type="alpha" maskUnits="userSpaceOnUse" x="2" y="2" width="14" height="13">
<path fill-rule="evenodd" clip-rule="evenodd" d="M7.09703 9.91667H10.167C10.5094 9.91667 10.7899 9.64042 10.7899 9.30325V9.11342C10.7899 8.77625 10.5094 8.5 10.167 8.5H7.09703C6.75392 8.5 6.47412 8.77625 6.47412 9.11342V9.30325C6.47412 9.64042 6.75392 9.91667 7.09703 9.91667ZM12.9477 12.75C12.9477 13.1403 12.6254 13.4583 12.2284 13.4583H5.03539C4.63906 13.4583 4.3161 13.1403 4.3161 12.75V6.375H12.9477V12.75ZM4.31609 3.54167H12.9477C13.3447 3.54167 13.667 3.85971 13.667 4.25C13.667 4.64029 13.3447 4.95833 12.9477 4.95833H4.31609C3.91976 4.95833 3.5968 4.64029 3.5968 4.25C3.5968 3.85971 3.91976 3.54167 4.31609 3.54167ZM15.1056 4.25C15.1056 3.07842 14.1374 2.125 12.9477 2.125H4.31609C3.12638 2.125 2.1582 3.07842 2.1582 4.25C2.1582 4.87546 2.43945 5.43292 2.8775 5.8225V12.75C2.8775 13.9216 3.84567 14.875 5.03539 14.875H12.2284C13.4181 14.875 14.3863 13.9216 14.3863 12.75V5.8225C14.8243 5.43292 15.1056 4.87546 15.1056 4.25Z" fill="white"/>
</mask>
<g mask="url(#mask0)">
<rect width="17.2631" height="17" fill="#0D1C2E"/>
</g>
</svg>
