<svg width="18" height="17" viewBox="0 0 18 17" fill="none" xmlns="http://www.w3.org/2000/svg">
<path fill-rule="evenodd" clip-rule="evenodd" d="M13.7891 2.71533C13.394 2.71533 13.0708 3.0208 13.0708 3.39415V13.5764C13.0708 13.9498 13.394 14.2553 13.7891 14.2553C14.1841 14.2553 14.5073 13.9498 14.5073 13.5764V3.39415C14.5073 3.0208 14.1841 2.71533 13.7891 2.71533ZM8.76145 5.43061C8.36643 5.43061 8.04323 5.73608 8.04323 6.10943V13.5764C8.04323 13.9498 8.36643 14.2553 8.76145 14.2553C9.15648 14.2553 9.47968 13.9498 9.47968 13.5764V6.10943C9.47968 5.73608 9.15648 5.43061 8.76145 5.43061ZM3.01562 8.82471C3.01562 8.45136 3.33883 8.14589 3.73385 8.14589C4.12888 8.14589 4.45208 8.45136 4.45208 8.82471V13.5764C4.45208 13.9498 4.12888 14.2553 3.73385 14.2553C3.33883 14.2553 3.01562 13.9498 3.01562 13.5764V8.82471Z" fill="black"/>
<mask id="mask0" mask-type="alpha" maskUnits="userSpaceOnUse" x="3" y="2" width="12" height="13">
<path fill-rule="evenodd" clip-rule="evenodd" d="M13.7891 2.71533C13.394 2.71533 13.0708 3.0208 13.0708 3.39415V13.5764C13.0708 13.9498 13.394 14.2553 13.7891 14.2553C14.1841 14.2553 14.5073 13.9498 14.5073 13.5764V3.39415C14.5073 3.0208 14.1841 2.71533 13.7891 2.71533ZM8.76145 5.43061C8.36643 5.43061 8.04323 5.73608 8.04323 6.10943V13.5764C8.04323 13.9498 8.36643 14.2553 8.76145 14.2553C9.15648 14.2553 9.47968 13.9498 9.47968 13.5764V6.10943C9.47968 5.73608 9.15648 5.43061 8.76145 5.43061ZM3.01562 8.82471C3.01562 8.45136 3.33883 8.14589 3.73385 8.14589C4.12888 8.14589 4.45208 8.45136 4.45208 8.82471V13.5764C4.45208 13.9498 4.12888 14.2553 3.73385 14.2553C3.33883 14.2553 3.01562 13.9498 3.01562 13.5764V8.82471Z" fill="white"/>
</mask>
<g mask="url(#mask0)">
<rect width="17.2375" height="16.2917" transform="translate(0.142578)" fill="#0D1C2E"/>
<rect x="0.142578" width="17.2375" height="16.2917" fill="#0D1C2E"/>
</g>
</svg>
