<svg width="18" height="18" viewBox="0 0 18 18" fill="none" xmlns="http://www.w3.org/2000/svg">
<path fill-rule="evenodd" clip-rule="evenodd" d="M5.03539 11.9211C5.03539 11.5315 5.35908 11.2127 5.75469 11.2127C6.1503 11.2127 6.47399 11.5315 6.47399 11.9211C6.47399 12.3106 6.1503 12.6294 5.75469 12.6294C5.35908 12.6294 5.03539 12.3106 5.03539 11.9211ZM8.63188 11.2127H11.5091C11.9047 11.2127 12.2284 11.5315 12.2284 11.9211C12.2284 12.3106 11.9047 12.6294 11.5091 12.6294H8.63188C8.23626 12.6294 7.91258 12.3106 7.91258 11.9211C7.91258 11.5315 8.23626 11.2127 8.63188 11.2127ZM12.9477 14.7544H4.31609C3.91976 14.7544 3.5968 14.4364 3.5968 14.0461V9.79606H13.667V14.0461C13.667 14.4364 13.344 14.7544 12.9477 14.7544ZM4.31609 4.83773H5.03539V5.54606C5.03539 5.93564 5.35908 6.25439 5.75469 6.25439C6.1503 6.25439 6.47399 5.93564 6.47399 5.54606V4.83773H10.7898V5.54606C10.7898 5.93564 11.1135 6.25439 11.5091 6.25439C11.9047 6.25439 12.2284 5.93564 12.2284 5.54606V4.83773H12.9477C13.344 4.83773 13.667 5.15577 13.667 5.54606V8.37939H3.5968V5.54606C3.5968 5.15577 3.91976 4.83773 4.31609 4.83773ZM12.9477 3.42106H12.2284V2.71273C12.2284 2.32314 11.9047 2.00439 11.5091 2.00439C11.1135 2.00439 10.7898 2.32314 10.7898 2.71273V3.42106H6.47399V2.71273C6.47399 2.32314 6.1503 2.00439 5.75469 2.00439C5.35908 2.00439 5.03539 2.32314 5.03539 2.71273V3.42106H4.31609C3.12638 3.42106 2.1582 4.37448 2.1582 5.54606V14.0461C2.1582 15.2176 3.12638 16.1711 4.31609 16.1711H12.9477C14.1374 16.1711 15.1056 15.2176 15.1056 14.0461V5.54606C15.1056 4.37448 14.1374 3.42106 12.9477 3.42106Z" fill="#231F20"/>
<mask id="mask0" mask-type="alpha" maskUnits="userSpaceOnUse" x="2" y="2" width="14" height="15">
<path fill-rule="evenodd" clip-rule="evenodd" d="M5.03539 11.9211C5.03539 11.5315 5.35908 11.2127 5.75469 11.2127C6.1503 11.2127 6.47399 11.5315 6.47399 11.9211C6.47399 12.3106 6.1503 12.6294 5.75469 12.6294C5.35908 12.6294 5.03539 12.3106 5.03539 11.9211ZM8.63188 11.2127H11.5091C11.9047 11.2127 12.2284 11.5315 12.2284 11.9211C12.2284 12.3106 11.9047 12.6294 11.5091 12.6294H8.63188C8.23626 12.6294 7.91258 12.3106 7.91258 11.9211C7.91258 11.5315 8.23626 11.2127 8.63188 11.2127ZM12.9477 14.7544H4.31609C3.91976 14.7544 3.5968 14.4364 3.5968 14.0461V9.79606H13.667V14.0461C13.667 14.4364 13.344 14.7544 12.9477 14.7544ZM4.31609 4.83773H5.03539V5.54606C5.03539 5.93564 5.35908 6.25439 5.75469 6.25439C6.1503 6.25439 6.47399 5.93564 6.47399 5.54606V4.83773H10.7898V5.54606C10.7898 5.93564 11.1135 6.25439 11.5091 6.25439C11.9047 6.25439 12.2284 5.93564 12.2284 5.54606V4.83773H12.9477C13.344 4.83773 13.667 5.15577 13.667 5.54606V8.37939H3.5968V5.54606C3.5968 5.15577 3.91976 4.83773 4.31609 4.83773ZM12.9477 3.42106H12.2284V2.71273C12.2284 2.32314 11.9047 2.00439 11.5091 2.00439C11.1135 2.00439 10.7898 2.32314 10.7898 2.71273V3.42106H6.47399V2.71273C6.47399 2.32314 6.1503 2.00439 5.75469 2.00439C5.35908 2.00439 5.03539 2.32314 5.03539 2.71273V3.42106H4.31609C3.12638 3.42106 2.1582 4.37448 2.1582 5.54606V14.0461C2.1582 15.2176 3.12638 16.1711 4.31609 16.1711H12.9477C14.1374 16.1711 15.1056 15.2176 15.1056 14.0461V5.54606C15.1056 4.37448 14.1374 3.42106 12.9477 3.42106Z" fill="white"/>
</mask>
<g mask="url(#mask0)">
<rect y="0.587891" width="17.2631" height="17" fill="#0D1C2E"/>
</g>
</svg>
