<svg width="14" height="11" viewBox="0 0 14 11" fill="none" xmlns="http://www.w3.org/2000/svg">
<path fill-rule="evenodd" clip-rule="evenodd" d="M11.2998 0.356734C11.5295 0.129041 11.8396 0.000897023 12.163 4.69152e-06C12.4864 -0.00088764 12.7972 0.125544 13.0281 0.351966C13.2591 0.578388 13.3916 0.886607 13.3972 1.20999C13.4027 1.53337 13.2807 1.84592 13.0576 2.08008L6.50558 10.2701C6.39297 10.3914 6.25706 10.4887 6.10598 10.5563C5.95489 10.6238 5.79174 10.6603 5.62626 10.6633C5.46079 10.6664 5.29639 10.636 5.14291 10.5741C4.98943 10.5122 4.85001 10.42 4.73299 10.3029L0.391789 5.96008C0.270848 5.84739 0.173844 5.71149 0.106565 5.56049C0.039285 5.4095 0.00310778 5.2465 0.000191571 5.08121C-0.00272464 4.91593 0.02768 4.75175 0.0895909 4.59848C0.151502 4.4452 0.243651 4.30596 0.360542 4.18907C0.477432 4.07218 0.616668 3.98003 0.769945 3.91812C0.923222 3.85621 1.0874 3.82581 1.25268 3.82872C1.41796 3.83164 1.58096 3.86782 1.73196 3.9351C1.88296 4.00238 2.01886 4.09938 2.13155 4.22032L5.5684 7.65553L11.2686 0.392843C11.2788 0.380129 11.2897 0.368068 11.3014 0.356734H11.2998Z" fill="#4ED098"/>
</svg>
