<svg width="25" height="25" viewBox="0 0 25 25" fill="none" xmlns="http://www.w3.org/2000/svg">
<path fill-rule="evenodd" clip-rule="evenodd" d="M12.4998 11.4578C11.6384 11.4578 10.9373 10.7568 10.9373 9.89529C10.9373 9.03383 11.6384 8.33279 12.4998 8.33279C13.3613 8.33279 14.0623 9.03383 14.0623 9.89529C14.0623 10.7568 13.3613 11.4578 12.4998 11.4578M12.4998 6.24946C10.4894 6.24946 8.854 7.88488 8.854 9.89529C8.854 11.9057 10.4894 13.5411 12.4998 13.5411C14.5103 13.5411 16.1457 11.9057 16.1457 9.89529C16.1457 7.88488 14.5103 6.24946 12.4998 6.24946M12.4998 20.4646C10.755 18.8146 6.24984 14.1823 6.24984 10.3354C6.24984 6.93435 9.05296 4.16665 12.4998 4.16665C15.9467 4.16665 18.7498 6.93435 18.7498 10.3354C18.7498 14.1823 14.2446 18.8146 12.4998 20.4646M12.4998 2.08331C7.90505 2.08331 4.1665 5.78435 4.1665 10.3354C4.1665 16.0385 11.5092 22.3969 11.8217 22.6646C12.0175 22.8323 12.2582 22.9166 12.4998 22.9166C12.7415 22.9166 12.9821 22.8323 13.178 22.6646C13.4905 22.3969 20.8332 16.0385 20.8332 10.3354C20.8332 5.78435 17.0946 2.08331 12.4998 2.08331" fill="#231F20"/>
<mask id="mask0" mask-type="alpha" maskUnits="userSpaceOnUse" x="4" y="2" width="17" height="21">
<path fill-rule="evenodd" clip-rule="evenodd" d="M12.4998 11.4578C11.6384 11.4578 10.9373 10.7568 10.9373 9.89529C10.9373 9.03383 11.6384 8.33279 12.4998 8.33279C13.3613 8.33279 14.0623 9.03383 14.0623 9.89529C14.0623 10.7568 13.3613 11.4578 12.4998 11.4578M12.4998 6.24946C10.4894 6.24946 8.854 7.88488 8.854 9.89529C8.854 11.9057 10.4894 13.5411 12.4998 13.5411C14.5103 13.5411 16.1457 11.9057 16.1457 9.89529C16.1457 7.88488 14.5103 6.24946 12.4998 6.24946M12.4998 20.4646C10.755 18.8146 6.24984 14.1823 6.24984 10.3354C6.24984 6.93435 9.05296 4.16665 12.4998 4.16665C15.9467 4.16665 18.7498 6.93435 18.7498 10.3354C18.7498 14.1823 14.2446 18.8146 12.4998 20.4646M12.4998 2.08331C7.90505 2.08331 4.1665 5.78435 4.1665 10.3354C4.1665 16.0385 11.5092 22.3969 11.8217 22.6646C12.0175 22.8323 12.2582 22.9166 12.4998 22.9166C12.7415 22.9166 12.9821 22.8323 13.178 22.6646C13.4905 22.3969 20.8332 16.0385 20.8332 10.3354C20.8332 5.78435 17.0946 2.08331 12.4998 2.08331" fill="white"/>
</mask>
<g mask="url(#mask0)">
<rect width="25" height="25" fill="#0D1C2E"/>
</g>
</svg>
