<svg width="26" height="25" viewBox="0 0 26 25" fill="none" xmlns="http://www.w3.org/2000/svg">
<path fill-rule="evenodd" clip-rule="evenodd" d="M6.94656 4.16668C5.43725 4.16668 4.21002 5.38126 4.21002 6.87501C4.21002 14.5708 10.5367 20.8333 18.3137 20.8333C19.822 20.8333 21.0503 19.6188 21.0503 18.125C21.0503 18.0094 21.0429 17.8958 21.0282 17.7833L16.1656 16.6792C16.0687 16.8625 15.9624 17.0615 15.8656 17.2469C15.3856 18.1531 15.0383 18.8115 14.1521 18.4583C10.6725 17.25 7.83173 14.4375 6.59502 10.9521C6.21927 10.1344 6.93498 9.76355 7.84225 9.2948C8.02644 9.19897 8.22537 9.09584 8.40745 9.00209L7.29179 4.18855C7.17496 4.17397 7.06128 4.16668 6.94656 4.16668ZM18.3137 22.9167C9.37577 22.9167 2.10498 15.7208 2.10498 6.87501C2.10498 4.2323 4.27632 2.08334 6.94656 2.08334C7.22021 2.08334 7.49071 2.10626 7.75279 2.15105C8.00855 2.19168 8.26536 2.25626 8.51586 2.34168C8.85793 2.45939 9.1158 2.74376 9.19684 3.09376L10.6377 9.30626C10.7177 9.64793 10.6177 10.0063 10.3715 10.2604C10.2283 10.4083 10.2252 10.4115 8.92003 11.0875C9.97676 13.3521 11.8134 15.1636 14.0553 16.174C14.7394 14.8813 14.7436 14.8771 14.8931 14.7354C15.1499 14.4917 15.5141 14.3969 15.8572 14.4719L22.1354 15.8979C22.488 15.9781 22.7754 16.2323 22.8932 16.5708C22.9796 16.8167 23.0448 17.0708 23.088 17.3323C23.1322 17.5896 23.1553 17.8563 23.1553 18.125C23.1553 20.7677 20.9829 22.9167 18.3137 22.9167Z" fill="#231F20"/>
<mask id="mask0" mask-type="alpha" maskUnits="userSpaceOnUse" x="2" y="2" width="22" height="21">
<path fill-rule="evenodd" clip-rule="evenodd" d="M6.94656 4.16668C5.43725 4.16668 4.21002 5.38126 4.21002 6.87501C4.21002 14.5708 10.5367 20.8333 18.3137 20.8333C19.822 20.8333 21.0503 19.6188 21.0503 18.125C21.0503 18.0094 21.0429 17.8958 21.0282 17.7833L16.1656 16.6792C16.0687 16.8625 15.9624 17.0615 15.8656 17.2469C15.3856 18.1531 15.0383 18.8115 14.1521 18.4583C10.6725 17.25 7.83173 14.4375 6.59502 10.9521C6.21927 10.1344 6.93498 9.76355 7.84225 9.2948C8.02644 9.19897 8.22537 9.09584 8.40745 9.00209L7.29179 4.18855C7.17496 4.17397 7.06128 4.16668 6.94656 4.16668ZM18.3137 22.9167C9.37577 22.9167 2.10498 15.7208 2.10498 6.87501C2.10498 4.2323 4.27632 2.08334 6.94656 2.08334C7.22021 2.08334 7.49071 2.10626 7.75279 2.15105C8.00855 2.19168 8.26536 2.25626 8.51586 2.34168C8.85793 2.45939 9.1158 2.74376 9.19684 3.09376L10.6377 9.30626C10.7177 9.64793 10.6177 10.0063 10.3715 10.2604C10.2283 10.4083 10.2252 10.4115 8.92003 11.0875C9.97676 13.3521 11.8134 15.1636 14.0553 16.174C14.7394 14.8813 14.7436 14.8771 14.8931 14.7354C15.1499 14.4917 15.5141 14.3969 15.8572 14.4719L22.1354 15.8979C22.488 15.9781 22.7754 16.2323 22.8932 16.5708C22.9796 16.8167 23.0448 17.0708 23.088 17.3323C23.1322 17.5896 23.1553 17.8563 23.1553 18.125C23.1553 20.7677 20.9829 22.9167 18.3137 22.9167Z" fill="white"/>
</mask>
<g mask="url(#mask0)">
<rect width="25.2604" height="25" fill="#0D1C2E"/>
</g>
</svg>
