<svg width="23" height="17" viewBox="0 0 23 17" fill="none" xmlns="http://www.w3.org/2000/svg">
<path fill-rule="evenodd" clip-rule="evenodd" d="M18.8332 14.75H3.6665C3.06959 14.75 2.58317 14.2834 2.58317 13.7084V3.5521L10.5998 9.33335C10.7927 9.47294 11.0213 9.54169 11.2498 9.54169C11.4784 9.54169 11.707 9.47294 11.8998 9.33335L19.9165 3.5521V13.7084C19.9165 14.2834 19.4301 14.75 18.8332 14.75V14.75ZM18.1106 2.25002L11.2498 7.19794L4.38909 2.25002H18.1106ZM18.8332 0.166687H3.6665C1.87467 0.166687 0.416504 1.56877 0.416504 3.29169V13.7084C0.416504 15.4313 1.87467 16.8334 3.6665 16.8334H18.8332C20.625 16.8334 22.0832 15.4313 22.0832 13.7084V3.29169C22.0832 1.56877 20.625 0.166687 18.8332 0.166687V0.166687Z" fill="#231F20"/>
<mask id="mask0" mask-type="alpha" maskUnits="userSpaceOnUse" x="0" y="0" width="23" height="17">
<path fill-rule="evenodd" clip-rule="evenodd" d="M18.8332 14.75H3.6665C3.06959 14.75 2.58317 14.2834 2.58317 13.7084V3.5521L10.5998 9.33335C10.7927 9.47294 11.0213 9.54169 11.2498 9.54169C11.4784 9.54169 11.707 9.47294 11.8998 9.33335L19.9165 3.5521V13.7084C19.9165 14.2834 19.4301 14.75 18.8332 14.75V14.75ZM18.1106 2.25002L11.2498 7.19794L4.38909 2.25002H18.1106ZM18.8332 0.166687H3.6665C1.87467 0.166687 0.416504 1.56877 0.416504 3.29169V13.7084C0.416504 15.4313 1.87467 16.8334 3.6665 16.8334H18.8332C20.625 16.8334 22.0832 15.4313 22.0832 13.7084V3.29169C22.0832 1.56877 20.625 0.166687 18.8332 0.166687V0.166687Z" fill="white"/>
</mask>
<g mask="url(#mask0)">
<rect x="-1.75" y="-4" width="26" height="25" fill="#0D1C2E"/>
</g>
</svg>
