<svg width="17" height="18" viewBox="0 0 21 22" fill="none" xmlns="http://www.w3.org/2000/svg">
<path d="M9.17428 1.34434C9.17428 0.987798 9.30597 0.645861 9.54039 0.393748C9.77481 0.141636 10.0928 0 10.4243 0C10.7558 0 11.0737 0.141636 11.3082 0.393748C11.5426 0.645861 11.6743 0.987798 11.6743 1.34434V10.9671L15.728 6.60743L17.4955 8.50833L10.4243 16.1133L3.35303 8.50967L5.12053 6.60877L9.17428 10.9671V1.34434Z" fill="black"/>
<path d="M0.424072 13.4434H2.92407V18.8207H17.9241V13.4434H20.4241V18.8207C20.4241 19.5338 20.1607 20.2177 19.6918 20.7219C19.223 21.2261 18.5871 21.5094 17.9241 21.5094H2.92407C2.26103 21.5094 1.62515 21.2261 1.15631 20.7219C0.687464 20.2177 0.424072 19.5338 0.424072 18.8207V13.4434Z" fill="black"/>
</svg>
