<svg width="16" height="15" viewBox="0 0 16 15" fill="none" xmlns="http://www.w3.org/2000/svg">
<path d="M7.74512 0C3.60287 0 0.245117 3.35775 0.245117 7.5C0.245117 11.6423 3.60287 15 7.74512 15C11.8874 15 15.2451 11.6423 15.2451 7.5C15.2451 3.35775 11.8874 0 7.74512 0ZM7.74512 1.08675C9.37899 1.08675 10.8704 1.698 12.0029 2.70375C11.1707 3.80137 9.90662 4.53225 8.63987 5.02688C7.92277 3.72088 7.1191 2.46432 6.23424 1.26562C6.72913 1.14634 7.23643 1.08629 7.74549 1.08675H7.74512ZM5.01662 1.69425C5.85287 2.94525 6.66287 4.10512 7.40274 5.418C5.53149 5.90287 3.41687 6.19388 1.46349 6.19875C1.87524 4.20075 3.21737 2.54175 5.01662 1.69463V1.69425ZM12.7142 3.4455C13.641 4.57798 14.1508 5.99432 14.1584 7.45762C12.6749 7.16512 11.1996 7.08862 9.69737 7.24012C9.52862 6.819 9.32387 6.41887 9.12774 5.98762C10.4226 5.46525 11.8071 4.57125 12.7142 3.44513V3.4455ZM7.92362 6.41025C8.08412 6.7515 8.27012 7.11375 8.44487 7.48388C6.35612 8.40488 4.13424 9.63563 2.98112 11.7934C1.87412 10.5684 1.28417 8.96245 1.33487 7.31213C3.57174 7.30163 5.76737 7.02187 7.92362 6.41025ZM11.3129 8.15887C12.2462 8.15907 13.1756 8.2788 14.0785 8.51513C13.9393 9.38371 13.6228 10.2144 13.1489 10.9554C12.6749 11.6965 12.0535 12.3321 11.3234 12.8228C10.9791 11.2571 10.651 9.759 10.0709 8.2485C10.482 8.18859 10.897 8.15851 11.3125 8.1585L11.3129 8.15887ZM14.1119 8.27512C14.1074 8.31187 14.1032 8.34788 14.098 8.38387C14.1032 8.3475 14.1077 8.3115 14.1119 8.27512ZM8.88437 8.54138C9.47537 10.0688 9.93924 11.76 10.2505 13.4059C9.45819 13.742 8.60616 13.9148 7.74549 13.9136C6.31968 13.9157 4.93422 13.4404 3.80987 12.5636C4.97124 10.6796 6.77012 9.25387 8.88399 8.54175L8.88437 8.54138Z" fill="black"/>
</svg>
