<svg width="23" height="20" viewBox="0 0 23 20" fill="none" xmlns="http://www.w3.org/2000/svg">
<path fill-rule="evenodd" clip-rule="evenodd" d="M11.4984 2.9169L10.3001 1.72305C9.15878 0.611775 7.62369 -0.0063429 6.02786 0.00278711C4.43202 0.0119171 2.90416 0.647559 1.77572 1.77182C0.647272 2.89607 0.00926409 4.41827 0.000100093 6.00819C-0.00906391 7.5981 0.611355 9.1275 1.72676 10.2646L11.4701 19.9709L11.4994 20L21.2418 10.2937C22.3709 9.15953 23.0031 7.62584 23 6.02835C22.9968 4.43085 22.3586 2.89965 21.225 1.76986C20.0914 0.640063 18.5547 0.00369143 16.9513 1.60091e-05C15.3478 -0.00365941 13.8082 0.625661 12.6694 1.75025L11.4984 2.9169ZM11.4711 16.8633L16.9117 11.4429L18.5108 9.90421L19.6808 8.73852C20.4048 8.01715 20.8116 7.03876 20.8116 6.01859C20.8116 4.99842 20.4048 4.02003 19.6808 3.29866C18.9567 2.57729 17.9747 2.17203 16.9507 2.17203C15.9268 2.17203 14.9447 2.57729 14.2207 3.29866L11.4906 6.01859L11.4828 6.01082L8.74203 3.27632C8.01798 2.55495 7.03594 2.14969 6.01198 2.14969C4.98801 2.14969 4.00598 2.55495 3.28192 3.27632C2.55787 3.99769 2.1511 4.97608 2.1511 5.99625C2.1511 7.01642 2.55787 7.99481 3.28192 8.71618L6.0851 11.5002L11.4711 16.8633Z" fill="#FF0000"/>
<path d="M11.4711 16.8633L16.9117 11.4429L18.5108 9.90421L19.6808 8.73852C20.4048 8.01715 20.8116 7.03876 20.8116 6.01859C20.8116 4.99842 20.4048 4.02003 19.6808 3.29866C18.9567 2.57729 17.9747 2.17203 16.9507 2.17203C15.9268 2.17203 14.9447 2.57729 14.2207 3.29866L11.4906 6.01859L11.4828 6.01082L8.74203 3.27632C8.01798 2.55495 7.03594 2.14969 6.01198 2.14969C4.98801 2.14969 4.00598 2.55495 3.28192 3.27632C2.55787 3.99769 2.1511 4.97608 2.1511 5.99625C2.1511 7.01642 2.55787 7.99481 3.28192 8.71618L6.0851 11.5002L11.4711 16.8633Z" fill="#FF0000"/>
</svg>
