<svg width="15" height="12" viewBox="0 0 15 12" fill="none" xmlns="http://www.w3.org/2000/svg">
<path d="M14.4643 0H0.535714C0.239397 0 0 0.239397 0 0.535714V11.25C0 11.5463 0.239397 11.7857 0.535714 11.7857H14.4643C14.7606 11.7857 15 11.5463 15 11.25V0.535714C15 0.239397 14.7606 0 14.4643 0ZM13.7946 1.85491V10.5804H1.20536V1.85491L0.743304 1.49498L1.40123 0.649554L2.11775 1.20703H12.8839L13.6004 0.649554L14.2584 1.49498L13.7946 1.85491ZM12.8839 1.20536L7.5 5.39062L2.11607 1.20536L1.39955 0.647879L0.741629 1.4933L1.20368 1.85324L6.92243 6.29966C7.0869 6.42743 7.28923 6.49679 7.49749 6.49679C7.70575 6.49679 7.90808 6.42743 8.07255 6.29966L13.7946 1.85491L14.2567 1.49498L13.5988 0.649554L12.8839 1.20536Z" fill="white"/>
</svg>
