<svg width="24.000000000000004" height="24.000000000000004" xmlns="http://www.w3.org/2000/svg">

 <g>
  <title>background</title>
  <rect fill="none" id="canvas_background" height="26" width="26" y="-1" x="-1"/>
 </g>
 <g>
  <title>Layer 1</title>
  <g stroke="null" id="svg_4">
   <path fill="#ffffff" stroke="null" id="svg_2" d="m22.249582,10.194483l-3.225456,0l0,-3.224597c0,-0.246031 -0.199659,-0.446119 -0.445261,-0.446119l-0.918431,0c-0.247319,0 -0.446978,0.200088 -0.446978,0.446119l0,3.224597l-3.225456,0c-0.245602,0 -0.446119,0.200518 -0.446119,0.446978l0,0.918431c0,0.246461 0.200518,0.446119 0.446119,0.446119l3.225456,0l0,3.226315c0,0.246461 0.199659,0.446119 0.446978,0.446119l0.918431,0c0.245602,0 0.445261,-0.199659 0.445261,-0.446119l0,-3.226744l3.225456,0c0.245602,0 0.446119,-0.199659 0.446119,-0.446119l0,-0.918431c0,-0.246461 -0.200518,-0.446549 -0.446119,-0.446549z"/>
   <path fill="#ffffff" stroke="null" id="svg_3" d="m11.41047,13.022339c-0.678411,-0.480469 -1.294991,-1.185072 -1.305726,-1.401476c0,-0.394165 0.035209,-0.58266 0.919289,-1.271376c1.142993,-0.894815 1.772455,-2.071299 1.772455,-3.314336c0,-1.127106 -0.344358,-2.128406 -0.930453,-2.83172l0.454707,0c0.094033,0 0.186348,-0.029197 0.261489,-0.084157l1.2688,-0.919289c0.15758,-0.112925 0.223704,-0.314302 0.163591,-0.498503c-0.060542,-0.183772 -0.230574,-0.309149 -0.424221,-0.309149l-5.674604,0c-0.620874,0 -1.251625,0.10949 -1.870782,0.32246c-2.067864,0.71319 -3.513995,2.47534 -3.513995,4.284292c0,2.562932 1.985424,4.505419 4.639384,4.56639c-0.051954,0.203094 -0.078146,0.403182 -0.078146,0.599406c0,0.395024 0.100044,0.769008 0.306144,1.130541c-0.024045,0 -0.047231,0 -0.072994,0c-2.52987,0 -4.81328,1.24132 -5.680186,3.088486c-0.225851,0.480469 -0.340923,0.966091 -0.340923,1.445702c0,0.4663 0.119795,0.914996 0.354663,1.336641c0.544875,0.974678 1.714919,1.730806 3.296303,2.130123c0.81624,0.206099 1.69345,0.311296 2.604152,0.311296c0.818386,0 1.598559,-0.105626 2.319907,-0.314302c2.24906,-0.653078 3.703349,-2.308743 3.703349,-4.219886c-0.000429,-1.833855 -0.58996,-2.931764 -2.172202,-4.051142zm-7.166678,4.197988c0,-1.334064 1.694738,-2.504108 3.626491,-2.504108l0.051954,0c0.420357,0.005152 0.830409,0.066982 1.216845,0.185489c0.132677,0.091457 0.26063,0.178619 0.383431,0.262347c0.894815,0.609711 1.486063,1.012034 1.650513,1.657812c0.038644,0.162733 0.057965,0.325465 0.057965,0.483046c0,1.661247 -1.238743,2.503249 -3.683168,2.503249c-1.852748,0 -3.304031,-1.136123 -3.304031,-2.587836zm1.757856,-12.605126c0.30185,-0.344787 0.697303,-0.526842 1.141276,-0.526842l0.050237,0.000859c1.254201,0.036926 2.454301,1.434538 2.674999,3.115536c0.124089,0.941187 -0.085445,1.826127 -0.558615,2.36542c-0.302709,0.345646 -0.69258,0.5277 -1.154586,0.5277c0,0 0,0 -0.000859,0l-0.020181,0c-1.228438,-0.037785 -2.454301,-1.488639 -2.673711,-3.16749c-0.12323,-0.938611 0.074282,-1.782331 0.54144,-2.315183z"/>
  </g>
 </g>
</svg>