<svg width="15" height="17" viewBox="0 0 15 17" fill="none" xmlns="http://www.w3.org/2000/svg">
<path fill-rule="evenodd" clip-rule="evenodd" d="M4.64779 1.66316C3.62767 1.9374 2.61418 2.23568 1.60814 2.55776C1.5171 2.58587 1.43583 2.63909 1.37368 2.7113C1.31152 2.78352 1.271 2.87181 1.25677 2.96602C0.662229 7.31299 2.03425 10.4854 3.67064 12.5746C4.49162 13.6232 5.38065 14.3995 6.12132 14.9093C6.49277 15.1636 6.8196 15.3488 7.07727 15.467C7.20667 15.5262 7.31152 15.5663 7.39183 15.5897C7.42725 15.6011 7.4634 15.6101 7.50003 15.6165C7.50784 15.6154 7.54242 15.6109 7.60823 15.5909C7.68855 15.5663 7.7934 15.5262 7.92279 15.467C8.17935 15.3488 8.50842 15.1636 8.87875 14.9093C9.80751 14.2577 10.6335 13.4707 11.3294 12.5746C12.9658 10.4854 14.3378 7.31299 13.7433 2.96602C13.7291 2.87181 13.6885 2.78352 13.6264 2.7113C13.5642 2.63909 13.483 2.58587 13.3919 2.55776C12.6936 2.33467 11.5157 1.97103 10.3523 1.66316C9.16319 1.34971 8.06892 1.11547 7.50003 1.11547C6.93115 1.11547 5.83799 1.34971 4.64779 1.66316ZM4.36223 0.58562C5.52566 0.277751 6.76048 0 7.50003 0C8.23847 0 9.47441 0.277751 10.6378 0.58562C11.6756 0.864235 12.7065 1.16735 13.7299 1.49472C14.3189 1.68212 14.7628 2.18966 14.8487 2.81544C15.4879 7.49705 14.0054 10.9661 12.2084 13.2618C11.4426 14.247 10.5335 15.1118 9.51122 15.8273C9.15577 16.0763 8.78002 16.295 8.38794 16.481C8.08677 16.6193 7.76551 16.732 7.50003 16.732C7.23455 16.732 6.9133 16.6193 6.61212 16.481C6.21996 16.2951 5.8442 16.0765 5.48885 15.8273C4.46702 15.1117 3.55823 14.2469 2.79277 13.2618C0.993522 10.9661 -0.487817 7.49705 0.151345 2.81544C0.19408 2.51211 0.321841 2.22708 0.519841 1.99335C0.71784 1.75962 0.977983 1.58674 1.27016 1.49472C2.29354 1.16736 3.32452 0.864243 4.36223 0.58562Z" fill="black"/>
</svg>
