<svg width="15" height="16" viewBox="0 0 15 16" fill="none" xmlns="http://www.w3.org/2000/svg">
<path d="M11.5483 0.00134474C11.4593 0.003706 11.3668 0.00949109 11.2766 0.0201167C10.9171 0.0610844 10.5457 0.159431 10.1897 0.291779C9.47751 0.556475 8.82168 0.957062 8.39996 1.37878C7.94435 1.83439 7.72062 2.3907 7.72535 2.96224C7.72889 3.45657 7.91389 3.9555 8.18449 4.43342L7.50044 5.1268C7.41142 5.19941 7.37045 5.31534 7.39619 5.42774C7.42193 5.53907 7.50977 5.62691 7.6211 5.65265C7.73349 5.67839 7.84943 5.63742 7.92204 5.5484L8.76536 4.70508C8.86501 4.60437 8.88024 4.44865 8.80291 4.33035C8.49606 3.85597 8.32853 3.38738 8.32499 2.96224C8.32145 2.53709 8.46796 2.1541 8.82168 1.80038C9.14954 1.47241 9.76795 1.09177 10.4051 0.853993C10.8057 0.705234 11.1875 0.649036 11.5389 0.638529L10.4051 1.76296C10.4016 1.76874 10.3982 1.77583 10.3958 1.78161C10.0878 2.13297 10.0737 2.66826 10.4051 2.99978L11.998 4.59268C12.0016 4.59622 12.0039 4.59847 12.0075 4.60201C12.3588 4.91003 12.8941 4.92408 13.2255 4.59268L14.3593 3.45893C14.35 3.81607 14.2938 4.20142 14.1438 4.60201C13.9072 5.23565 13.5266 5.8471 13.1974 6.17614C12.8437 6.52997 12.4677 6.65996 12.0449 6.65406C11.6221 6.64827 11.143 6.48192 10.6488 6.18558C10.5305 6.11534 10.3806 6.13517 10.2833 6.23245L9.80549 6.71025C9.68601 6.82619 9.68483 7.01722 9.80077 7.13658C9.91671 7.25606 10.1076 7.25724 10.2271 7.1413L10.5644 6.804C11.0516 7.06515 11.5412 7.24673 12.0356 7.2537C12.6024 7.26196 13.1634 7.05346 13.619 6.59786C14.0396 6.17732 14.4413 5.5262 14.706 4.81759C14.9707 4.10898 15.11 3.34063 14.8934 2.69058C14.8594 2.59211 14.7775 2.5195 14.6768 2.49613C14.5749 2.47381 14.4694 2.50427 14.3968 2.57806L12.8039 4.16164C12.7195 4.24593 12.5462 4.25762 12.4198 4.16164C12.4138 4.15691 12.4069 4.15691 12.401 4.15231L10.8269 2.57806C10.7378 2.48904 10.7331 2.30286 10.8455 2.17523L12.4198 0.600985C12.4935 0.528376 12.524 0.422946 12.5017 0.321058C12.4783 0.220351 12.4057 0.138415 12.3072 0.104413C12.0672 0.0223599 11.8142 -0.00691962 11.5483 0.00134474ZM1.00699 0.0294437C0.943713 0.0387706 0.883973 0.0680501 0.838283 0.11374L0.0887031 0.86332C-0.00846248 0.960604 -0.0284151 1.11054 0.0418322 1.22884L1.30687 3.42138C1.37004 3.52445 1.48727 3.57947 1.60663 3.562L2.26259 3.45893L6.32914 7.52548L6.17932 7.67542C5.8478 8.00682 5.8478 8.54329 6.17932 8.87481L6.38545 9.09028C6.6243 9.32924 6.95345 9.32806 7.24743 9.23089L7.75345 9.72746C7.71944 10.1315 7.83774 10.5332 8.12829 10.8238L11.7826 14.4874C12.5228 15.2276 13.7221 15.2276 14.4624 14.4874C14.4624 14.484 14.4624 14.4816 14.4624 14.4781C15.1733 13.7308 15.1828 12.5279 14.4624 11.8076L10.7988 8.15333C10.4965 7.85109 10.0947 7.75735 9.70242 7.77848L9.20585 7.27247C9.30302 6.97849 9.3042 6.64933 9.06524 6.41049L8.84978 6.20435C8.68461 6.03919 8.46796 5.95135 8.25002 5.95135C8.03219 5.95135 7.81555 6.03919 7.65038 6.20435L7.50044 6.35418L3.43389 2.28763L3.53696 1.63167C3.55443 1.51231 3.49941 1.39507 3.39635 1.33191L1.2038 0.0668695C1.15221 0.03759 1.09365 0.0247212 1.03509 0.0294437C1.02577 0.0294437 1.01632 0.0294437 1.00699 0.0294437ZM1.11006 0.704053L2.91855 1.74419L2.8248 2.35327C2.81194 2.44571 2.84358 2.53945 2.9091 2.60616L7.07884 6.7759L6.75086 7.10387L2.58112 2.93414C2.51442 2.86861 2.42068 2.83697 2.32823 2.84984L1.71915 2.94358L0.679016 1.1351L1.11006 0.704053ZM8.25002 6.56031C8.31684 6.56031 8.38355 6.58145 8.42806 6.62596L8.63419 6.84142C8.73266 6.93989 8.73148 7.08628 8.65297 7.17884C8.54872 7.29939 8.55686 7.48097 8.67174 7.59112L9.35567 8.27505C9.42486 8.34424 9.52202 8.37576 9.61813 8.35947C9.89569 8.31378 10.1861 8.38403 10.377 8.57493L14.0314 12.2387C14.5092 12.7165 14.5139 13.5434 14.0314 14.0565C13.5125 14.5752 12.7325 14.5752 12.2136 14.0565L8.5499 10.4021C8.35073 10.203 8.27233 9.92073 8.33443 9.67126C8.36135 9.56583 8.32853 9.45568 8.25002 9.38071L7.56608 8.69677C7.45593 8.5819 7.27435 8.57375 7.15381 8.678C7.06124 8.75651 6.91485 8.7577 6.81638 8.65923L6.60092 8.45309C6.5119 8.36407 6.5119 8.18604 6.60092 8.09702L8.07198 6.62596C8.11649 6.58145 8.18331 6.56031 8.25002 6.56031ZM5.3079 7.45995C5.23989 7.46928 5.17673 7.50328 5.12986 7.55357L3.70555 8.97788C3.50178 8.93798 3.30154 8.90291 3.09647 8.90291C1.4064 8.90291 0.0325053 10.2768 0.0325053 11.9669C0.0325053 13.6571 1.4064 15.0215 3.09647 15.0215C4.78665 15.0215 6.1511 13.6571 6.1511 11.9669C6.1511 11.7479 6.10199 11.5312 6.04803 11.3204L7.07884 10.2897C7.19832 10.1737 7.19938 9.98283 7.08344 9.86335C6.9675 9.74387 6.7766 9.74269 6.65712 9.85863L5.52336 11.0018C5.43788 11.0838 5.4086 11.209 5.44839 11.3204C5.52336 11.5194 5.55146 11.7198 5.55146 11.9669C5.55146 13.3349 4.46458 14.4219 3.09647 14.4219C1.72847 14.4219 0.632145 13.3349 0.632145 11.9669C0.632145 10.5989 1.72847 9.50255 3.09647 9.50255C3.31087 9.50255 3.52633 9.53301 3.7431 9.58685C3.84498 9.60916 3.95159 9.57752 4.0242 9.50255L5.55146 7.97529C5.64048 7.8897 5.6674 7.75735 5.61946 7.64377C5.57259 7.5302 5.4589 7.45759 5.336 7.45995C5.32655 7.45995 5.31722 7.45995 5.3079 7.45995ZM9.51506 9.10905L9.08401 9.5401L12.6821 13.1382L13.1131 12.7071L9.51506 9.10905ZM3.41512 10.224C3.39871 10.2264 3.38348 10.2288 3.36825 10.2335L1.96271 10.627C1.86318 10.6551 1.78467 10.7336 1.75657 10.8331L1.36307 12.2387C1.33025 12.3451 1.35953 12.46 1.43804 12.5384L2.4875 13.5879C2.56365 13.6628 2.67486 13.6921 2.77793 13.6628L4.22089 13.2693C4.32632 13.2424 4.40956 13.1592 4.43648 13.0538L4.79255 11.6483C4.82183 11.5453 4.79255 11.4339 4.71758 11.3578L3.66813 10.3083C3.6013 10.2428 3.50768 10.2112 3.41512 10.224ZM3.35892 10.8612L4.1647 11.667L3.89303 12.7446L2.79671 13.0351L1.99081 12.2292L2.28136 11.1517L3.35892 10.8612Z" fill="black"/>
</svg>
