<svg width="24" height="24" xmlns="http://www.w3.org/2000/svg">

 <g>
  <title>background</title>
  <rect fill="none" id="canvas_background" height="26" width="26" y="-1" x="-1"/>
 </g>
 <g>
  <title>Layer 1</title>
  <path fill="#ffffff" stroke="null" id="svg_2" d="m12.002368,6.643396c-2.965058,0 -5.356667,2.391654 -5.356667,5.356621c0,2.965013 2.391608,5.356531 5.356667,5.356531c2.965013,0 5.356576,-2.391563 5.356576,-5.356531c0,-2.964968 -2.391608,-5.356621 -5.356576,-5.356621zm0,8.839161c-1.916058,0 -3.48254,-1.561848 -3.48254,-3.48254c0,-1.920692 1.561757,-3.482449 3.48254,-3.482449c1.920601,0 3.482449,1.561757 3.482449,3.482449c0,1.920692 -1.566391,3.48254 -3.482449,3.48254l0,0zm6.825068,-9.05822c0,0.694654 -0.559458,1.249388 -1.249388,1.249388c-0.6947,0 -1.249388,-0.559412 -1.249388,-1.249388c0,-0.689975 0.559367,-1.249433 1.249388,-1.249433c0.68993,0 1.249388,0.559412 1.249388,1.249433zm3.54773,1.267968c-0.079183,-1.673558 -0.461468,-3.156133 -1.687596,-4.377536c-1.221403,-1.221449 -2.703933,-1.603734 -4.377536,-1.687596c-1.724984,-0.097899 -6.895074,-0.097899 -8.620012,0c-1.669015,0.079183 -3.151499,0.461513 -4.377582,1.682962c-1.226128,1.221449 -1.603734,2.703933 -1.687641,4.377536c-0.097899,1.724893 -0.097899,6.895074 0,8.620012c0.079274,1.673694 0.461513,3.156087 1.687641,4.377582c1.226083,1.221449 2.703978,1.603688 4.377582,1.687596c1.724893,0.097854 6.895028,0.097854 8.620012,0c1.673649,-0.079228 3.156178,-0.461604 4.377536,-1.687596c1.221449,-1.22154 1.603734,-2.703933 1.687596,-4.377582c0.097945,-1.724893 0.097945,-6.89044 0,-8.615378zm-2.228428,10.4662c-0.363614,0.913668 -1.067581,1.617726 -1.985973,1.985973c-1.375271,0.545557 -4.638662,0.419582 -6.158443,0.419582c-1.519872,0 -4.787896,0.12125 -6.158488,-0.419582c-0.913758,-0.363659 -1.617771,-1.06749 -1.986019,-1.985973c-0.545375,-1.375271 -0.419446,-4.638662 -0.419446,-6.158488s-0.12125,-4.787805 0.419491,-6.158443c0.363704,-0.913758 1.067581,-1.617726 1.986019,-1.985973c1.375271,-0.545466 4.638616,-0.419582 6.158488,-0.419582c1.519736,0 4.787805,-0.121205 6.158443,0.419582c0.913713,0.363523 1.61768,1.067581 1.985973,1.985973c0.545466,1.375226 0.419627,4.638616 0.419627,6.158443s0.125793,4.787851 -0.419673,6.158488z"/>
 </g>
</svg>