<svg width="18" height="18" viewBox="0 0 18 18" fill="none" xmlns="http://www.w3.org/2000/svg">
<path fill-rule="evenodd" clip-rule="evenodd" d="M8.29199 3.56293C9.8615 2.0138 12.3941 1.73401 14.1435 3.08126C16.2388 4.69484 16.3762 7.70172 14.5556 9.49876L13.5321 10.5081C13.2494 10.7872 12.7919 10.7872 12.5092 10.5081C12.2265 10.2298 12.2265 9.77713 12.5092 9.49876L13.5321 8.48868C14.7225 7.31497 14.6578 5.36351 13.3364 4.27409C12.1661 3.30863 10.4096 3.4928 9.33137 4.55672L8.41571 5.45984C8.13374 5.73893 7.67483 5.73893 7.39287 5.45984C7.11018 5.18147 7.10731 4.73168 7.52018 4.32438L8.29199 3.56293ZM9.56225 7.38319L6.68506 10.2165C6.40381 10.4935 6.40381 10.9411 6.68506 11.2181C6.82532 11.3562 7.00946 11.4256 7.1936 11.4256C7.37774 11.4256 7.56188 11.3562 7.70215 11.2181L10.5793 8.38477C10.8606 8.10781 10.8606 7.66015 10.5793 7.38319C10.2981 7.10623 9.84349 7.10623 9.56225 7.38319ZM8.83378 13.1232L7.9174 14.0235C6.83773 15.0838 5.07761 15.2666 3.9066 14.3054C2.58381 13.2202 2.51835 11.2751 3.71023 10.1043L4.73523 9.09842C5.01791 8.82075 5.01791 8.37025 4.73523 8.09188C4.45254 7.81492 3.99363 7.81492 3.71023 8.09188L2.79312 8.99359C1.23081 10.5278 0.956758 12.9957 2.3076 14.7127C3.94112 16.7902 7.00533 16.9305 8.83378 15.1355L9.85878 14.1297C10.1415 13.8513 10.1415 13.4015 9.85878 13.1232C9.57538 12.8448 9.11719 12.8448 8.83378 13.1232Z" fill="#231F20"/>
<mask id="mask0" mask-type="alpha" maskUnits="userSpaceOnUse" x="1" y="2" width="15" height="15">
<path fill-rule="evenodd" clip-rule="evenodd" d="M8.29199 3.56293C9.8615 2.0138 12.3941 1.73401 14.1435 3.08126C16.2388 4.69484 16.3762 7.70172 14.5556 9.49876L13.5321 10.5081C13.2494 10.7872 12.7919 10.7872 12.5092 10.5081C12.2265 10.2298 12.2265 9.77713 12.5092 9.49876L13.5321 8.48868C14.7225 7.31497 14.6578 5.36351 13.3364 4.27409C12.1661 3.30863 10.4096 3.4928 9.33137 4.55672L8.41571 5.45984C8.13374 5.73893 7.67483 5.73893 7.39287 5.45984C7.11018 5.18147 7.10731 4.73168 7.52018 4.32438L8.29199 3.56293ZM9.56225 7.38319L6.68506 10.2165C6.40381 10.4935 6.40381 10.9411 6.68506 11.2181C6.82532 11.3562 7.00946 11.4256 7.1936 11.4256C7.37774 11.4256 7.56188 11.3562 7.70215 11.2181L10.5793 8.38477C10.8606 8.10781 10.8606 7.66015 10.5793 7.38319C10.2981 7.10623 9.84349 7.10623 9.56225 7.38319ZM8.83378 13.1232L7.9174 14.0235C6.83773 15.0838 5.07761 15.2666 3.9066 14.3054C2.58381 13.2202 2.51835 11.2751 3.71023 10.1043L4.73523 9.09842C5.01791 8.82075 5.01791 8.37025 4.73523 8.09188C4.45254 7.81492 3.99363 7.81492 3.71023 8.09188L2.79312 8.99359C1.23081 10.5278 0.956758 12.9957 2.3076 14.7127C3.94112 16.7902 7.00533 16.9305 8.83378 15.1355L9.85878 14.1297C10.1415 13.8513 10.1415 13.4015 9.85878 13.1232C9.57538 12.8448 9.11719 12.8448 8.83378 13.1232Z" fill="white"/>
</mask>
<g mask="url(#mask0)">
<rect y="0.800781" width="17.2631" height="17" fill="#0D1C2E"/>
</g>
</svg>
