<svg width="15" height="18" viewBox="0 0 15 18" fill="none" xmlns="http://www.w3.org/2000/svg">
<path d="M14.3182 7.5H12.8693V2.72727C12.8693 1.22088 11.6484 0 10.142 0H4.85795C3.35156 0 2.13068 1.22088 2.13068 2.72727V7.5H0.681818C0.304688 7.5 0 7.80469 0 8.18182V16.3636C0 16.7408 0.304688 17.0455 0.681818 17.0455H14.3182C14.6953 17.0455 15 16.7408 15 16.3636V8.18182C15 7.80469 14.6953 7.5 14.3182 7.5ZM3.66477 2.72727C3.66477 2.06889 4.19957 1.53409 4.85795 1.53409H10.142C10.8004 1.53409 11.3352 2.06889 11.3352 2.72727V7.5H3.66477V2.72727ZM13.4659 15.5114H1.53409V9.03409H13.4659V15.5114ZM6.90341 12.5497V13.679C6.90341 13.7727 6.98011 13.8494 7.07386 13.8494H7.92614C8.01989 13.8494 8.09659 13.7727 8.09659 13.679V12.5497C8.27247 12.4234 8.40375 12.2446 8.47153 12.039C8.53931 11.8333 8.54009 11.6115 8.47376 11.4054C8.40744 11.1993 8.27742 11.0195 8.10244 10.892C7.92745 10.7645 7.71652 10.6958 7.5 10.6958C7.28348 10.6958 7.07255 10.7645 6.89756 10.892C6.72258 11.0195 6.59256 11.1993 6.52624 11.4054C6.45991 11.6115 6.46069 11.8333 6.52847 12.039C6.59625 12.2446 6.72753 12.4234 6.90341 12.5497Z" fill="white"/>
</svg>
