<svg width="30" height="30" viewBox="0 0 30 30" fill="none" xmlns="http://www.w3.org/2000/svg">
<path d="M0 0V30H30V0H0ZM2.72727 2.72727H27.2727V27.2727H2.72727V2.72727ZM9.36955 5.45727C8.70136 5.45727 8.03182 5.71091 7.52182 6.21955L6.21955 7.52182C5.50227 8.24182 5.265 9.28091 5.60046 10.23L5.65909 10.4073C5.88409 11.0945 6.41182 12.6982 8.13136 15.2455C8.96591 16.4836 9.93136 17.6414 10.9923 18.675L11.3114 18.9955C12.3576 20.0657 13.5094 21.0274 14.7491 21.8659C17.2991 23.5855 18.9055 24.1118 19.5914 24.3382L19.77 24.3995C20.2337 24.5639 20.7347 24.5929 21.2143 24.483C21.6939 24.3731 22.1323 24.129 22.4782 23.7791L23.7805 22.4782C24.2741 21.9832 24.5455 21.33 24.5455 20.6332C24.5455 19.935 24.2741 19.2764 23.7818 18.7841L22.2136 17.2186C21.2264 16.2327 19.5055 16.2327 18.5182 17.2186L16.1905 19.5464C15.1324 18.8224 14.1486 17.9957 13.2532 17.0782L12.9123 16.7373C11.999 15.8448 11.1764 14.8641 10.4564 13.8095L12.7841 11.4818C13.2777 10.9895 13.5477 10.3295 13.5477 9.63273C13.5477 8.93727 13.2777 8.28273 12.7841 7.78773L11.2132 6.21955C10.9712 5.97732 10.6838 5.78529 10.3674 5.65447C10.051 5.52366 9.71191 5.45664 9.36955 5.45727Z" fill="black"/>
</svg>
