<svg width="15" height="15" viewBox="0 0 15 15" fill="none" xmlns="http://www.w3.org/2000/svg">
<path d="M11.6116 8.1239C11.5384 8.05054 11.4514 7.99234 11.3556 7.95263C11.2599 7.91293 11.1573 7.89249 11.0536 7.89249C10.9499 7.89249 10.8473 7.91293 10.7516 7.95263C10.6558 7.99234 10.5688 8.05054 10.4956 8.1239L9.23754 9.38196C8.65428 9.20832 7.56591 8.8137 6.8761 8.1239C6.1863 7.43409 5.79168 6.34572 5.61804 5.76246L6.8761 4.5044C6.94946 4.43117 7.00766 4.34419 7.04737 4.24844C7.08708 4.15269 7.10751 4.05006 7.10751 3.9464C7.10751 3.84275 7.08708 3.74011 7.04737 3.64436C7.00766 3.54861 6.94946 3.46164 6.8761 3.3884L3.71911 0.231409C3.64588 0.158051 3.5589 0.0998538 3.46315 0.0601461C3.3674 0.0204384 3.26477 0 3.16111 0C3.05746 0 2.95482 0.0204384 2.85907 0.0601461C2.76332 0.0998538 2.67635 0.158051 2.60311 0.231409L0.462671 2.37185C0.162756 2.67177 -0.00614308 3.08375 0.000170908 3.50442C0.0183236 4.62831 0.315871 8.53194 3.39236 11.6084C6.46885 14.6849 10.3725 14.9817 11.4972 15.0006H11.5193C11.936 15.0006 12.3298 14.8365 12.6281 14.5381L14.7686 12.3977C14.8419 12.3244 14.9001 12.2375 14.9399 12.1417C14.9796 12.046 15 11.9433 15 11.8397C15 11.736 14.9796 11.6334 14.9399 11.5376C14.9001 11.4419 14.8419 11.3549 14.7686 11.2817L11.6116 8.1239ZM11.5114 13.4213C10.5264 13.4048 7.15629 13.1404 4.50836 10.4916C1.85175 7.83503 1.59445 4.4531 1.57867 3.48785L3.16111 1.90541L5.20211 3.9464L4.18161 4.9669C4.08884 5.0596 4.02064 5.17395 3.98316 5.29962C3.94567 5.4253 3.9401 5.55833 3.96693 5.6867C3.98588 5.77746 4.44917 7.92974 5.75932 9.23989C7.06947 10.55 9.22175 11.0133 9.31252 11.0323C9.4408 11.0599 9.57397 11.0547 9.69976 11.0174C9.82555 10.98 9.93991 10.9116 10.0323 10.8184L11.0536 9.79789L13.0946 11.8389L11.5114 13.4213Z" fill="white"/>
</svg>
