<svg width="15" height="16" viewBox="0 0 15 16" fill="none" xmlns="http://www.w3.org/2000/svg">
<path d="M6.14277 3.17401e-05C6.07294 -0.00102626 6.00311 0.0243658 5.94915 0.076208L5.1694 0.829506C5.06254 0.93319 5.05937 1.10459 5.16411 1.2125C5.21701 1.26646 5.28684 1.29503 5.35879 1.29503C5.4265 1.29503 5.49421 1.26964 5.54605 1.21885L6.3258 0.465553C6.43372 0.361869 6.43583 0.190472 6.33215 0.082556C6.28031 0.0296558 6.21154 0.00214775 6.14277 3.17401e-05ZM2.76879 1.05169C2.1742 1.05169 1.64837 1.24213 1.32674 1.57434L1.295 1.60608C0.907767 2.00177 0 2.92964 0 4.75258C0 6.31737 0.929985 7.82925 1.48332 8.59207L1.50448 8.61958C1.51718 8.63651 1.53939 8.66931 1.57219 8.71692C3.33059 11.2815 5.50373 13.1965 7.6938 14.1085C9.63735 14.9189 10.6657 15.1348 11.3693 15.1348C11.6666 15.1348 11.9057 15.0967 12.1321 15.048C13.1415 14.829 14.3941 14.0863 14.7263 13.1394C14.9972 12.3702 15.0808 11.5048 14.9147 11.2127C14.8046 11.0181 14.6015 10.9197 14.3201 10.7832C14.2587 10.7536 14.1921 10.7218 14.1201 10.6848C14.0989 10.6742 12.0411 9.64373 11.6613 9.51148C11.1842 9.3295 10.7609 9.45858 10.4689 9.87437L10.3198 10.086C10.0309 10.4933 9.75796 10.8784 9.53684 11.1175C9.39612 11.2688 9.1549 11.2625 8.97927 11.1895L8.86607 11.1429C8.39314 10.9504 7.4092 10.5504 6.19249 9.4607C5.21913 8.5889 4.52085 7.48329 4.26693 7.05162C4.16113 6.86965 4.20556 6.80405 4.38648 6.59033C4.48382 6.46866 4.57904 6.36709 4.67426 6.26553C4.75361 6.18194 4.8319 6.09836 4.91125 6.00526L4.94828 5.96399C5.10804 5.77673 5.22336 5.64236 5.34186 5.3895C5.54076 5.00015 5.35561 4.61292 5.29531 4.48491C5.235 4.359 4.81709 3.33909 4.51238 2.59426L4.20345 1.84096L4.20239 1.8399C3.91461 1.14585 3.62683 1.08448 3.19305 1.0665C3.06715 1.05909 2.92538 1.05169 2.76879 1.05169ZM7.91598 1.47066C7.88106 1.47066 7.84509 1.477 7.81018 1.49076L6.30358 2.09911C6.16393 2.15518 6.09833 2.31388 6.1544 2.45248C6.19672 2.55828 6.29829 2.62176 6.40515 2.62176C6.43901 2.62176 6.47286 2.61542 6.50672 2.60166L8.01332 1.99331C8.15191 1.93724 8.21857 1.77959 8.16249 1.63994C8.12123 1.53625 8.02178 1.47277 7.91598 1.47066ZM2.86507 1.5955C2.97193 1.59762 3.07244 1.60185 3.1666 1.60714C3.4639 1.61983 3.52632 1.62195 3.70195 2.04621L4.01089 2.79951C4.42351 3.80778 4.74409 4.58859 4.80545 4.71767C4.8975 4.91022 4.91337 5.03718 4.85623 5.15145C4.76419 5.34612 4.68801 5.43394 4.53778 5.60956L4.52508 5.62543L2.86507 1.5955ZM2.30962 1.64417C2.31385 1.66215 2.31279 1.68014 2.3202 1.69707L4.11986 6.06768C4.06802 6.12587 4.01512 6.18723 3.95905 6.256C3.78659 6.4602 3.4967 6.80193 3.79823 7.32353C4.13044 7.89062 4.83719 8.97507 5.83065 9.86485C7.11719 11.017 8.19952 11.4571 8.66081 11.6444L8.76979 11.6899C9.19616 11.8677 9.65322 11.7883 9.93465 11.4857C10.0902 11.3175 10.2626 11.0911 10.4425 10.8435L14.2778 12.7606C14.2587 12.8262 14.2397 12.8918 14.2153 12.9606C13.9614 13.6832 12.877 14.3317 12.0179 14.518C11.4793 14.6333 10.7398 14.792 7.90223 13.6081C5.80844 12.7352 3.71888 10.8901 2.01973 8.41116C1.97952 8.35297 1.95096 8.31276 1.94038 8.29795L1.92239 8.27256C1.40714 7.5637 0.541698 6.16396 0.541698 4.75152C0.541698 3.14971 1.31192 2.36255 1.68222 1.98485L1.71502 1.95099C1.85256 1.80922 2.06205 1.70342 2.30962 1.64417ZM6.57443 3.76123C6.42419 3.76123 6.30358 3.8829 6.30358 4.03208C6.30358 4.18232 6.42419 4.30293 6.57443 4.30293H7.65783C7.807 4.30293 7.92867 4.18232 7.92867 4.03208C7.92867 3.8829 7.807 3.76123 7.65783 3.76123H6.57443ZM3.28827 7.73086C3.25336 7.73509 3.21845 7.74673 3.18671 7.76577C3.05763 7.84195 3.01425 8.00806 3.09043 8.13608C3.1793 8.28843 3.338 8.52119 3.51574 8.7603C3.56864 8.83224 3.65117 8.86927 3.73369 8.86927C3.78977 8.86927 3.84584 8.85234 3.89451 8.81637C4.01512 8.7275 4.04051 8.55716 3.95058 8.43761C3.70407 8.10433 3.58769 7.91284 3.55701 7.86205C3.50093 7.76472 3.39302 7.71711 3.28827 7.73086ZM4.48382 9.23217C4.41399 9.22793 4.3431 9.25015 4.28809 9.29988C4.17594 9.39827 4.16536 9.56967 4.26481 9.68182C4.57798 10.0352 4.8975 10.3589 5.2149 10.6425C5.95867 11.309 6.70668 11.838 7.43882 12.2147C7.47797 12.2348 7.52134 12.2443 7.56261 12.2443C7.661 12.2443 7.75516 12.1914 7.80277 12.0972C7.8726 11.965 7.8197 11.801 7.68745 11.7333C6.99552 11.3767 6.2856 10.8742 5.57568 10.2394C5.27415 9.96854 4.96944 9.66066 4.67003 9.3221C4.6203 9.26708 4.55259 9.23534 4.48382 9.23217ZM11.2254 9.97383C11.2995 9.96854 11.3809 9.98441 11.4751 10.0193C11.7661 10.1209 13.3594 10.9091 13.8747 11.1694C13.9498 11.2064 14.0196 11.2403 14.0841 11.272C14.2323 11.3429 14.4163 11.4318 14.4375 11.4667C14.4661 11.5439 14.4735 11.8285 14.4079 12.22L10.7631 10.397L10.9122 10.1875C11.0053 10.0542 11.1037 9.98441 11.2254 9.97383Z" fill="black"/>
</svg>
