<svg width="8" height="11" viewBox="0 0 8 11" fill="none" xmlns="http://www.w3.org/2000/svg">
<path d="M4.25018 0C2.11242 0 0 1.5074 0 3.94709C0 5.49856 0.825034 6.38008 1.32506 6.38008C1.5314 6.38008 1.65007 5.77183 1.65007 5.60011C1.65007 5.39525 1.15638 4.95872 1.15638 4.10576C1.15638 2.33391 2.43143 1.07757 4.0815 1.07757C5.50023 1.07757 6.55027 1.93053 6.55027 3.49752C6.55027 4.66782 6.10659 6.8628 4.66886 6.8628C4.15017 6.8628 3.70615 6.46612 3.70615 5.89772C3.70615 5.0645 4.25618 4.25809 4.25618 3.39843C4.25618 1.93969 2.29976 2.20415 2.29976 3.96719C2.29976 4.33743 2.34343 4.74716 2.49977 5.0846C2.21209 6.39384 1.62473 8.34411 1.62473 9.69283C1.62473 10.1093 1.68107 10.5193 1.7184 10.9358C1.78907 11.0197 1.75374 11.0109 1.86208 10.9689C2.91212 9.44812 2.87479 9.15087 3.34981 7.16076C3.60615 7.67662 4.26851 7.95412 4.79353 7.95412C7.00596 7.95412 8 5.6731 8 3.61705C8 1.42877 6.21259 0 4.25018 0Z" fill="white"/>
</svg>
