<svg width="24" height="24" viewBox="0 0 24 24" fill="none" xmlns="http://www.w3.org/2000/svg">
<path d="M5.9 5.86C5.9 5.8 5.92 5.75 6 5.75C6.63 5.72 7.53 5.7 8.5 5.7C11.2 5.7 12.38 7.18 12.38 9.08C12.38 11.56 10.56 12.62 8.36 12.62C7.99 12.62 7.86 12.6 7.6 12.6V16.4C7.6 16.48 7.57 16.51 7.49 16.51H6.01C5.93 16.51 5.9 16.48 5.9 16.4V5.86ZM7.6 11.04C7.82 11.06 8 11.06 8.39 11.06C9.53 11.06 10.62 10.66 10.62 9.11C10.62 7.87 9.84 7.24 8.53 7.24C8.14 7.24 7.77 7.26 7.6 7.27V11.04ZM16.32 9.88C15.55 9.88 15.29 10.27 15.29 10.59C15.29 10.94 15.47 11.19 16.5 11.72C18.03 12.46 18.51 13.17 18.51 14.22C18.51 15.78 17.32 16.62 15.71 16.62C14.86 16.62 14.1 16.44 13.68 16.2C13.62 16.17 13.6 16.12 13.6 16.04V14.6C13.6 14.5 13.65 14.47 13.71 14.52C14.32 14.92 15.07 15.1 15.71 15.1C16.48 15.1 16.8 14.78 16.8 14.34C16.8 13.99 16.58 13.68 15.59 13.16C14.2 12.5 13.63 11.82 13.63 10.7C13.63 9.44 14.61 8.4 16.32 8.4C17.16 8.4 17.78 8.53 18.1 8.67C18.18 8.72 18.2 8.8 18.2 8.86V10.2C18.2 10.28 18.15 10.33 18.06 10.3C17.62 10.04 16.95 9.88 16.32 9.88V9.88ZM4.25 0C1.9 0 0 1.9 0 4.25V19.15C0 21.5 1.9 23.4 4.25 23.4H19.75C22.1 23.4 24 21.5 24 19.15V4.25C24 1.9 22.1 0 19.75 0H4.25ZM4.63 1H19.36C20.3227 1 21.246 1.38245 21.9268 2.0632C22.6076 2.74396 22.99 3.66726 22.99 4.63V18.76C22.9921 19.2369 22.9001 19.7096 22.7191 20.1508C22.5382 20.5921 22.2719 20.9933 21.9356 21.3315C21.5993 21.6697 21.1996 21.9381 20.7593 22.1215C20.3191 22.3048 19.8469 22.3995 19.37 22.4H4.63C2.63 22.4 1 20.77 1 18.77V4.63C1 2.63 2.63 1 4.63 1V1Z" fill="#00D795"/>
</svg>
