<svg width="11" height="11" viewBox="0 0 11 11" fill="none" xmlns="http://www.w3.org/2000/svg">
<path fill-rule="evenodd" clip-rule="evenodd" d="M6.89176 3.19957C6.98902 3.51258 7.26714 3.72547 7.58259 3.72547H10.4269C10.9216 3.72547 11.1267 4.3878 10.7266 4.69146L8.42537 6.44081C8.1709 6.63499 8.0647 6.97771 8.16197 7.29072L9.04049 10.121C9.19348 10.6134 8.65512 11.0227 8.2545 10.7184L5.9533 8.96966C5.69937 8.77547 5.35448 8.77547 5.09949 8.96966L2.7983 10.7184C2.39873 11.0227 1.85984 10.6134 2.01283 10.121L2.89188 7.29072C2.98914 6.97771 2.88294 6.63499 2.62743 6.44081L0.326759 4.69146C-0.0738607 4.3878 0.132758 3.72547 0.62696 3.72547H3.47178C3.78565 3.72547 4.06482 3.51258 4.16208 3.19957L5.04113 0.36926C5.19412 -0.123087 5.85972 -0.123087 6.01271 0.36926L6.89176 3.19957Z" fill="#EEEEEE"/>
</svg>
