<svg width="27" height="26" viewBox="0 0 27 26" fill="none" xmlns="http://www.w3.org/2000/svg">
<path fill-rule="evenodd" clip-rule="evenodd" d="M19.9319 17.6566C21.5899 15.519 22.3713 12.8301 22.1171 10.1369C21.863 7.44359 20.5923 4.94833 18.5636 3.15869C16.535 1.36905 13.9007 0.41947 11.1968 0.503141C8.49288 0.586813 5.92238 1.69744 4.00826 3.60909C2.09247 5.52206 0.978209 8.09356 0.892539 10.7995C0.806869 13.5055 1.75624 16.1424 3.54718 18.1727C5.33813 20.203 7.83586 21.474 10.5314 21.7267C13.2269 21.9794 15.9174 21.1948 18.0545 19.5327L18.1116 19.5926L23.7519 25.2342C23.8754 25.3577 24.0221 25.4557 24.1835 25.5226C24.3449 25.5894 24.5179 25.6238 24.6926 25.6238C24.8673 25.6238 25.0403 25.5894 25.2017 25.5226C25.3631 25.4557 25.5098 25.3577 25.6333 25.2342C25.7569 25.1106 25.8549 24.964 25.9217 24.8026C25.9886 24.6412 26.023 24.4682 26.023 24.2935C26.023 24.1188 25.9886 23.9458 25.9217 23.7844C25.8549 23.6229 25.7569 23.4763 25.6333 23.3527L19.9917 17.7125C19.9723 17.6933 19.9523 17.6747 19.9319 17.6566ZM17.1716 5.49052C17.9223 6.2291 18.5193 7.109 18.9283 8.07948C19.3372 9.04996 19.55 10.0918 19.5543 11.1449C19.5586 12.198 19.3543 13.2416 18.9533 14.2154C18.5522 15.1891 17.9624 16.0739 17.2177 16.8185C16.473 17.5632 15.5883 18.1531 14.6145 18.5541C13.6407 18.9551 12.5972 19.1594 11.5441 19.1551C10.491 19.1508 9.44913 18.9381 8.47865 18.5291C7.50817 18.1202 6.62827 17.5231 5.88968 16.7724C4.41369 15.2722 3.5903 13.2495 3.59887 11.1449C3.60744 9.04036 4.44727 7.02443 5.93544 5.53627C7.4236 4.0481 9.43952 3.20827 11.5441 3.1997C13.6487 3.19113 15.6713 4.01452 17.1716 5.49052Z" fill="white"/>
</svg>
