<svg width="18" height="18" viewBox="0 0 18 18" fill="none" xmlns="http://www.w3.org/2000/svg">
<path fill-rule="evenodd" clip-rule="evenodd" d="M3.16708 8.93961C3.96981 9.2109 4.60927 9.87248 4.87685 10.7111L4.90562 10.7961C5.21204 11.6858 5.0876 12.6435 4.57402 13.3617C4.48051 13.4921 4.50137 13.6479 4.59992 13.7216L6.0903 14.8365C6.14281 14.8754 6.19388 14.8754 6.22553 14.8719C6.26149 14.8662 6.314 14.8471 6.35644 14.7876L6.5226 14.5553C7.01819 13.8632 7.81661 13.4361 8.65963 13.412C9.60623 13.3929 10.4564 13.82 10.9858 14.573L11.0707 14.6941C11.1132 14.7536 11.1649 14.7734 11.2016 14.7791C11.2333 14.7855 11.2851 14.7834 11.3369 14.7437L12.8193 13.6422C12.9229 13.5657 12.9459 13.4021 12.869 13.2923L12.6819 13.0267C12.2 12.341 12.0569 11.4514 12.2993 10.6474C12.5625 9.7719 13.2322 9.07915 14.0918 8.79581L14.2363 8.74765C14.3521 8.71011 14.4147 8.56844 14.3737 8.43811L13.8076 6.6524C13.781 6.56882 13.7264 6.53127 13.6961 6.51569C13.653 6.49373 13.6062 6.49019 13.5616 6.50506L13.3171 6.58511C12.4805 6.85923 11.5577 6.71048 10.8492 6.18561L10.7715 6.12823C10.0982 5.62957 9.69758 4.82561 9.70045 3.97844L9.70189 3.78011C9.70189 3.6859 9.65658 3.62711 9.62924 3.60019C9.60335 3.57398 9.55947 3.54282 9.49761 3.54282L7.66556 3.54069C7.55335 3.54069 7.462 3.64623 7.46128 3.77657L7.46056 3.94798C7.45696 4.80861 7.04768 5.62744 6.36579 6.13956L6.273 6.20898C5.52278 6.77069 4.54453 6.92936 3.65836 6.63186C3.62455 6.62052 3.5929 6.62265 3.56269 6.63823C3.53967 6.64957 3.49795 6.67861 3.47781 6.74306L2.89015 8.5819C2.84771 8.71577 2.91748 8.85532 3.04911 8.89994L3.16708 8.93961ZM6.19607 16.2907C5.84649 16.2907 5.50698 16.1788 5.2207 15.9641L3.73032 14.8499C3.01821 14.3187 2.86069 13.2966 3.37858 12.5719C3.6476 12.1965 3.70298 11.7141 3.54474 11.2566L3.50518 11.1376C3.37354 10.7253 3.07288 10.4051 2.701 10.2798H2.70028L2.58304 10.2394C1.70693 9.94402 1.23939 9.02957 1.51776 8.1569L2.1047 6.31877C2.23777 5.90298 2.52477 5.56723 2.91319 5.37386C3.29298 5.18544 3.7224 5.1564 4.12377 5.29169C4.55463 5.43619 5.03296 5.35757 5.40196 5.08132L5.49475 5.0119C5.82275 4.7654 6.02056 4.36519 6.022 3.94232L6.02272 3.77161C6.02631 2.86211 6.76359 2.12402 7.66487 2.12402H7.66775L9.4998 2.12615C9.93282 2.12686 10.3414 2.29544 10.6492 2.60073C10.9679 2.91594 11.142 3.3374 11.1405 3.78719L11.1391 3.98482C11.1376 4.38573 11.3239 4.76469 11.6383 4.99702L11.7152 5.0544C12.0454 5.29877 12.4755 5.3689 12.8618 5.2414L13.1056 5.16136C13.5207 5.02536 13.9623 5.05865 14.3515 5.25486C14.7507 5.45602 15.0456 5.8024 15.1808 6.23094L15.7469 8.01665C16.0202 8.8794 15.5469 9.81015 14.6931 10.0914L14.5485 10.1388C14.1342 10.2762 13.8084 10.6162 13.6782 11.0497C13.5588 11.4471 13.6278 11.8841 13.8645 12.2199L14.0515 12.4855C14.5651 13.2165 14.4011 14.2422 13.6861 14.7727L12.2036 15.8749C11.8476 16.1398 11.411 16.2468 10.9729 16.1781C10.5313 16.1079 10.1457 15.8671 9.8875 15.5002L9.80262 15.3784C9.55087 15.0214 9.14806 14.8046 8.72584 14.828C8.30289 14.8393 7.93749 15.0369 7.69868 15.3713L7.53252 15.6036C7.27214 15.967 6.88587 16.2043 6.44638 16.2723C6.36222 16.285 6.27879 16.2907 6.19607 16.2907ZM8.63177 8.14479C8.03691 8.14479 7.55282 8.6215 7.55282 9.20729C7.55282 9.79308 8.03691 10.2698 8.63177 10.2698C9.22663 10.2698 9.71072 9.79308 9.71072 9.20729C9.71072 8.6215 9.22663 8.14479 8.63177 8.14479ZM8.63177 11.6865C7.24353 11.6865 6.11423 10.5744 6.11423 9.20729C6.11423 7.84021 7.24353 6.72813 8.63177 6.72813C10.02 6.72813 11.1493 7.84021 11.1493 9.20729C11.1493 10.5744 10.02 11.6865 8.63177 11.6865Z" fill="#231F20"/>
<mask id="mask0" mask-type="alpha" maskUnits="userSpaceOnUse" x="1" y="2" width="15" height="15">
<path fill-rule="evenodd" clip-rule="evenodd" d="M3.16708 8.93961C3.96981 9.2109 4.60927 9.87248 4.87685 10.7111L4.90562 10.7961C5.21204 11.6858 5.0876 12.6435 4.57402 13.3617C4.48051 13.4921 4.50137 13.6479 4.59992 13.7216L6.0903 14.8365C6.14281 14.8754 6.19388 14.8754 6.22553 14.8719C6.26149 14.8662 6.314 14.8471 6.35644 14.7876L6.5226 14.5553C7.01819 13.8632 7.81661 13.4361 8.65963 13.412C9.60623 13.3929 10.4564 13.82 10.9858 14.573L11.0707 14.6941C11.1132 14.7536 11.1649 14.7734 11.2016 14.7791C11.2333 14.7855 11.2851 14.7834 11.3369 14.7437L12.8193 13.6422C12.9229 13.5657 12.9459 13.4021 12.869 13.2923L12.6819 13.0267C12.2 12.341 12.0569 11.4514 12.2993 10.6474C12.5625 9.7719 13.2322 9.07915 14.0918 8.79581L14.2363 8.74765C14.3521 8.71011 14.4147 8.56844 14.3737 8.43811L13.8076 6.6524C13.781 6.56882 13.7264 6.53127 13.6961 6.51569C13.653 6.49373 13.6062 6.49019 13.5616 6.50506L13.3171 6.58511C12.4805 6.85923 11.5577 6.71048 10.8492 6.18561L10.7715 6.12823C10.0982 5.62957 9.69758 4.82561 9.70045 3.97844L9.70189 3.78011C9.70189 3.6859 9.65658 3.62711 9.62924 3.60019C9.60335 3.57398 9.55947 3.54282 9.49761 3.54282L7.66556 3.54069C7.55335 3.54069 7.462 3.64623 7.46128 3.77657L7.46056 3.94798C7.45696 4.80861 7.04768 5.62744 6.36579 6.13956L6.273 6.20898C5.52278 6.77069 4.54453 6.92936 3.65836 6.63186C3.62455 6.62052 3.5929 6.62265 3.56269 6.63823C3.53967 6.64957 3.49795 6.67861 3.47781 6.74306L2.89015 8.5819C2.84771 8.71577 2.91748 8.85532 3.04911 8.89994L3.16708 8.93961ZM6.19607 16.2907C5.84649 16.2907 5.50698 16.1788 5.2207 15.9641L3.73032 14.8499C3.01821 14.3187 2.86069 13.2966 3.37858 12.5719C3.6476 12.1965 3.70298 11.7141 3.54474 11.2566L3.50518 11.1376C3.37354 10.7253 3.07288 10.4051 2.701 10.2798H2.70028L2.58304 10.2394C1.70693 9.94402 1.23939 9.02957 1.51776 8.1569L2.1047 6.31877C2.23777 5.90298 2.52477 5.56723 2.91319 5.37386C3.29298 5.18544 3.7224 5.1564 4.12377 5.29169C4.55463 5.43619 5.03296 5.35757 5.40196 5.08132L5.49475 5.0119C5.82275 4.7654 6.02056 4.36519 6.022 3.94232L6.02272 3.77161C6.02631 2.86211 6.76359 2.12402 7.66487 2.12402H7.66775L9.4998 2.12615C9.93282 2.12686 10.3414 2.29544 10.6492 2.60073C10.9679 2.91594 11.142 3.3374 11.1405 3.78719L11.1391 3.98482C11.1376 4.38573 11.3239 4.76469 11.6383 4.99702L11.7152 5.0544C12.0454 5.29877 12.4755 5.3689 12.8618 5.2414L13.1056 5.16136C13.5207 5.02536 13.9623 5.05865 14.3515 5.25486C14.7507 5.45602 15.0456 5.8024 15.1808 6.23094L15.7469 8.01665C16.0202 8.8794 15.5469 9.81015 14.6931 10.0914L14.5485 10.1388C14.1342 10.2762 13.8084 10.6162 13.6782 11.0497C13.5588 11.4471 13.6278 11.8841 13.8645 12.2199L14.0515 12.4855C14.5651 13.2165 14.4011 14.2422 13.6861 14.7727L12.2036 15.8749C11.8476 16.1398 11.411 16.2468 10.9729 16.1781C10.5313 16.1079 10.1457 15.8671 9.8875 15.5002L9.80262 15.3784C9.55087 15.0214 9.14806 14.8046 8.72584 14.828C8.30289 14.8393 7.93749 15.0369 7.69868 15.3713L7.53252 15.6036C7.27214 15.967 6.88587 16.2043 6.44638 16.2723C6.36222 16.285 6.27879 16.2907 6.19607 16.2907ZM8.63177 8.14479C8.03691 8.14479 7.55282 8.6215 7.55282 9.20729C7.55282 9.79308 8.03691 10.2698 8.63177 10.2698C9.22663 10.2698 9.71072 9.79308 9.71072 9.20729C9.71072 8.6215 9.22663 8.14479 8.63177 8.14479ZM8.63177 11.6865C7.24353 11.6865 6.11423 10.5744 6.11423 9.20729C6.11423 7.84021 7.24353 6.72813 8.63177 6.72813C10.02 6.72813 11.1493 7.84021 11.1493 9.20729C11.1493 10.5744 10.02 11.6865 8.63177 11.6865Z" fill="white"/>
</mask>
<g mask="url(#mask0)">
<rect y="0.70752" width="17.2631" height="17" fill="#0D1C2E"/>
</g>
</svg>
