<svg width="180" height="68" viewBox="0 0 180 68" fill="none" xmlns="http://www.w3.org/2000/svg">
<rect width="180" height="68" rx="4" fill="#55ACEE"/>
<path d="M102.618 26.3758C101.713 26.7663 100.728 27.0473 99.713 27.1568C100.767 26.5309 101.556 25.542 101.932 24.3758C100.943 24.9639 99.8602 25.3763 98.7308 25.5947C98.2587 25.09 97.6878 24.688 97.0535 24.4136C96.4193 24.1393 95.7354 23.9985 95.0444 24C92.2485 24 90 26.2663 90 29.0473C90 29.4379 90.0473 29.8284 90.1243 30.2042C85.9379 29.9852 82.2041 27.9852 79.7219 24.9231C79.2696 25.6956 79.0326 26.5752 79.0355 27.4704C79.0355 29.2219 79.926 30.7663 81.284 31.6746C80.4837 31.643 79.7022 31.4231 79.003 31.0326V31.0947C79.003 33.5473 80.7367 35.5799 83.0473 36.0473C82.6135 36.16 82.1672 36.2177 81.7189 36.2189C81.3905 36.2189 81.0799 36.1864 80.7663 36.142C81.4053 38.142 83.2663 39.5947 85.4822 39.642C83.7485 41 81.5769 41.7988 79.2189 41.7988C78.7959 41.7988 78.4053 41.784 78 41.7367C80.2367 43.1716 82.8905 44 85.7485 44C95.0266 44 100.104 36.3136 100.104 29.642C100.104 29.4231 100.104 29.2042 100.089 28.9852C101.071 28.2663 101.932 27.3757 102.618 26.3758Z" fill="white"/>
</svg>
