<svg width="180" height="68" viewBox="0 0 180 68" fill="none" xmlns="http://www.w3.org/2000/svg">
<rect width="180" height="68" rx="4" fill="#DD4B39"/>
<path d="M99.4085 32.1798H89.9935V36.0495H95.372C95.1401 37.3003 94.4365 38.3583 93.3759 39.0671C92.4795 39.6664 91.3355 40.0208 89.9909 40.0208C87.3876 40.0208 85.1857 38.2619 84.3987 35.8984C84.2007 35.299 84.086 34.658 84.086 33.9987C84.086 33.3394 84.2007 32.6984 84.3987 32.099C85.1883 29.7381 87.3902 27.9792 89.9935 27.9792C91.4606 27.9792 92.7765 28.4847 93.8137 29.4749L96.6801 26.6059C94.9472 24.9902 92.6879 24 89.9935 24C86.0873 24 82.7075 26.241 81.0632 29.5088C80.3857 30.8586 80 32.3857 80 34.0013C80 35.6169 80.3857 37.1414 81.0632 38.4912C82.7075 41.759 86.0873 44 89.9935 44C92.6932 44 94.955 43.1036 96.6072 41.5765C98.4964 39.8358 99.5883 37.2717 99.5883 34.2254C99.5883 33.5166 99.5257 32.8365 99.4085 32.1798Z" fill="white"/>
</svg>
