<svg width="15" height="12" viewBox="0 0 15 12" fill="none" xmlns="http://www.w3.org/2000/svg">
<path d="M0 0V8.0625H0.5625V10.5H1.51099C1.60474 11.3416 2.32104 12 3.1875 12C4.05396 12 4.77026 11.3416 4.86401 10.5H9.38599C9.47974 11.3416 10.196 12 11.0625 12C11.929 12 12.6453 11.3416 12.739 10.5H14.625C14.8301 10.5 15 10.3301 15 10.125V9.375C15 9.24243 14.918 9.14502 14.8125 9.07837V6.47754L13.5776 3.27759C13.3828 2.77222 12.895 2.4375 12.3538 2.4375H8.8125V0H0ZM0.375 0.375H8.4375V7.6875C8.33423 7.6875 8.25 7.77173 8.25 7.875C8.25 7.97827 8.33423 8.0625 8.4375 8.0625V10.125H4.86401C4.77026 9.28345 4.05396 8.625 3.1875 8.625C2.32104 8.625 1.60474 9.28345 1.51099 10.125H0.9375V8.0625C1.04077 8.0625 1.125 7.97827 1.125 7.875C1.125 7.77173 1.04077 7.6875 0.9375 7.6875H0.375V0.375ZM8.8125 2.8125H11.4375V5.4375C11.4375 5.84985 11.7751 6.1875 12.1875 6.1875H12.449C12.575 6.1875 12.6914 6.24976 12.761 6.35449L12.802 6.41602C12.9412 6.62476 13.1755 6.75 13.426 6.75H14.4375V7.125H14.0625C13.6501 7.125 13.3125 7.46265 13.3125 7.875V8.0625H13.3506C13.4363 8.38257 13.7168 8.625 14.0625 8.625H14.4375V9C14.3342 9 14.25 9.08423 14.25 9.1875C14.25 9.29077 14.3342 9.375 14.4375 9.375H14.625V10.125H12.739C12.6453 9.28345 11.929 8.625 11.0625 8.625C10.196 8.625 9.47974 9.28345 9.38599 10.125H8.8125V2.8125ZM11.8125 2.8125H12.3538C12.7412 2.8125 13.0884 3.05054 13.2275 3.41235L14.3708 6.375H13.426C13.3 6.375 13.1836 6.31274 13.114 6.20801L13.0723 6.14648C12.9338 5.93774 12.6995 5.8125 12.449 5.8125H12.1875C11.978 5.8125 11.8125 5.64697 11.8125 5.4375V2.8125ZM9.9375 3.375C9.62915 3.375 9.375 3.62915 9.375 3.9375V5.625C9.375 5.93335 9.62915 6.1875 9.9375 6.1875H10.3125C10.6208 6.1875 10.875 5.93335 10.875 5.625V3.9375C10.875 3.62915 10.6208 3.375 10.3125 3.375H9.9375ZM9.9375 3.75H10.3125C10.4187 3.75 10.5 3.8313 10.5 3.9375V5.625C10.5 5.7312 10.4187 5.8125 10.3125 5.8125H9.9375C9.8313 5.8125 9.75 5.7312 9.75 5.625V3.9375C9.75 3.8313 9.8313 3.75 9.9375 3.75ZM14.0625 7.5H14.4375V8.25H14.0625C13.853 8.25 13.6875 8.08447 13.6875 7.875C13.6875 7.66553 13.853 7.5 14.0625 7.5ZM1.6875 7.6875C1.58423 7.6875 1.5 7.77173 1.5 7.875C1.5 7.97827 1.58423 8.0625 1.6875 8.0625C1.79077 8.0625 1.875 7.97827 1.875 7.875C1.875 7.77173 1.79077 7.6875 1.6875 7.6875ZM2.4375 7.6875C2.33423 7.6875 2.25 7.77173 2.25 7.875C2.25 7.97827 2.33423 8.0625 2.4375 8.0625C2.54077 8.0625 2.625 7.97827 2.625 7.875C2.625 7.77173 2.54077 7.6875 2.4375 7.6875ZM3.1875 7.6875C3.08423 7.6875 3 7.77173 3 7.875C3 7.97827 3.08423 8.0625 3.1875 8.0625C3.29077 8.0625 3.375 7.97827 3.375 7.875C3.375 7.77173 3.29077 7.6875 3.1875 7.6875ZM3.9375 7.6875C3.83423 7.6875 3.75 7.77173 3.75 7.875C3.75 7.97827 3.83423 8.0625 3.9375 8.0625C4.04077 8.0625 4.125 7.97827 4.125 7.875C4.125 7.77173 4.04077 7.6875 3.9375 7.6875ZM4.6875 7.6875C4.58423 7.6875 4.5 7.77173 4.5 7.875C4.5 7.97827 4.58423 8.0625 4.6875 8.0625C4.79077 8.0625 4.875 7.97827 4.875 7.875C4.875 7.77173 4.79077 7.6875 4.6875 7.6875ZM5.4375 7.6875C5.33423 7.6875 5.25 7.77173 5.25 7.875C5.25 7.97827 5.33423 8.0625 5.4375 8.0625C5.54077 8.0625 5.625 7.97827 5.625 7.875C5.625 7.77173 5.54077 7.6875 5.4375 7.6875ZM6.1875 7.6875C6.08423 7.6875 6 7.77173 6 7.875C6 7.97827 6.08423 8.0625 6.1875 8.0625C6.29077 8.0625 6.375 7.97827 6.375 7.875C6.375 7.77173 6.29077 7.6875 6.1875 7.6875ZM6.9375 7.6875C6.83423 7.6875 6.75 7.77173 6.75 7.875C6.75 7.97827 6.83423 8.0625 6.9375 8.0625C7.04077 8.0625 7.125 7.97827 7.125 7.875C7.125 7.77173 7.04077 7.6875 6.9375 7.6875ZM7.6875 7.6875C7.58423 7.6875 7.5 7.77173 7.5 7.875C7.5 7.97827 7.58423 8.0625 7.6875 8.0625C7.79077 8.0625 7.875 7.97827 7.875 7.875C7.875 7.77173 7.79077 7.6875 7.6875 7.6875ZM3.1875 9C3.91479 9 4.5 9.58521 4.5 10.3125C4.5 11.0398 3.91479 11.625 3.1875 11.625C2.46021 11.625 1.875 11.0398 1.875 10.3125C1.875 9.58521 2.46021 9 3.1875 9ZM11.0625 9C11.7898 9 12.375 9.58521 12.375 10.3125C12.375 11.0398 11.7898 11.625 11.0625 11.625C10.3352 11.625 9.75 11.0398 9.75 10.3125C9.75 9.58521 10.3352 9 11.0625 9ZM12.9375 9C12.8342 9 12.75 9.08423 12.75 9.1875C12.75 9.29077 12.8342 9.375 12.9375 9.375C13.0408 9.375 13.125 9.29077 13.125 9.1875C13.125 9.08423 13.0408 9 12.9375 9ZM13.6875 9C13.5842 9 13.5 9.08423 13.5 9.1875C13.5 9.29077 13.5842 9.375 13.6875 9.375C13.7908 9.375 13.875 9.29077 13.875 9.1875C13.875 9.08423 13.7908 9 13.6875 9ZM3.1875 9.75C2.87915 9.75 2.625 10.0042 2.625 10.3125C2.625 10.6208 2.87915 10.875 3.1875 10.875C3.49585 10.875 3.75 10.6208 3.75 10.3125C3.75 10.0042 3.49585 9.75 3.1875 9.75ZM11.0625 9.75C10.7542 9.75 10.5 10.0042 10.5 10.3125C10.5 10.6208 10.7542 10.875 11.0625 10.875C11.3708 10.875 11.625 10.6208 11.625 10.3125C11.625 10.0042 11.3708 9.75 11.0625 9.75ZM3.1875 10.125C3.29297 10.125 3.375 10.207 3.375 10.3125C3.375 10.418 3.29297 10.5 3.1875 10.5C3.08203 10.5 3 10.418 3 10.3125C3 10.207 3.08203 10.125 3.1875 10.125ZM11.0625 10.125C11.168 10.125 11.25 10.207 11.25 10.3125C11.25 10.418 11.168 10.5 11.0625 10.5C10.957 10.5 10.875 10.418 10.875 10.3125C10.875 10.207 10.957 10.125 11.0625 10.125Z" fill="black"/>
</svg>
