<svg width="24" height="24" xmlns="http://www.w3.org/2000/svg">

 <g>
  <title>background</title>
  <rect fill="none" id="canvas_background" height="26" width="26" y="-1" x="-1"/>
 </g>
 <g>
  <title>Layer 1</title>
  <path stroke="null" id="svg_1" fill="#ffffff" d="m23.431628,4.908474c-0.841149,0.373765 -1.744474,0.626038 -2.694251,0.738239c0.968358,-0.5803 1.712314,-1.499347 2.06321,-2.594199c-0.906898,0.536706 -1.910274,0.928337 -2.978684,1.137731c-0.856157,-0.911186 -2.075359,-1.480766 -3.425344,-1.480766c-2.590626,0 -4.689569,2.099658 -4.689569,4.690284c0,0.367333 0.040735,0.72609 0.120777,1.069125c-3.898446,-0.195816 -7.354519,-2.06321 -9.668574,-4.901107c-0.403066,0.693216 -0.634614,1.498632 -0.634614,2.358363c0,1.627985 0.828286,3.063013 2.086079,3.904877c-0.768255,-0.025013 -1.491486,-0.235122 -2.123956,-0.586732c-0.000715,0.019296 -0.000715,0.040021 -0.000715,0.058602c0,2.273319 1.616551,4.1693 3.762661,4.600237c-0.393061,0.106484 -0.807561,0.164371 -1.235639,0.164371c-0.303014,0 -0.596023,-0.029301 -0.881885,-0.083615c0.596023,1.862392 2.329062,3.218808 4.380838,3.2574c-1.604402,1.257794 -3.626876,2.008896 -5.824442,2.008896c-0.378767,0 -0.752532,-0.022154 -1.11915,-0.065748c2.075359,1.329259 4.540921,2.10609 7.190149,2.10609c8.627321,0 13.346191,-7.147269 13.346191,-13.346191c0,-0.202962 -0.005717,-0.405924 -0.014293,-0.607457c0.916903,-0.661056 1.7116,-1.486483 2.341211,-2.428399z"/>
 </g>
</svg>