<svg width="20" height="15" viewBox="0 0 20 15" fill="none" xmlns="http://www.w3.org/2000/svg">
<path d="M19.245 1.78181C18.566 2.07471 17.8271 2.28551 17.066 2.36761C17.8562 1.89816 18.4479 1.15652 18.7302 0.281814C17.9887 0.722914 17.1764 1.03222 16.3293 1.19601C15.9753 0.817523 15.5471 0.516 15.0714 0.310233C14.5957 0.104466 14.0828 -0.00113561 13.5645 9.20947e-06C11.4676 9.20947e-06 9.78125 1.69971 9.78125 3.78551C9.78125 4.07841 9.81675 4.37131 9.87444 4.65311C6.73465 4.48891 3.93436 2.98891 2.07267 0.692316C1.73345 1.27171 1.55569 1.93143 1.55788 2.60282C1.55788 3.91643 2.22578 5.07471 3.24427 5.75592C2.64405 5.73229 2.0579 5.56731 1.53347 5.27441V5.32101C1.53347 7.16051 2.83376 8.68492 4.56675 9.03551C4.24136 9.12003 3.90663 9.16327 3.57045 9.16421C3.32415 9.16421 3.09116 9.1398 2.85595 9.10651C3.33524 10.6065 4.73095 11.696 6.39293 11.7315C5.09264 12.75 3.46394 13.3491 1.69545 13.3491C1.37814 13.3491 1.08524 13.338 0.78125 13.3025C2.45876 14.3787 4.44915 15 6.59264 15C13.5512 15 17.3589 9.23521 17.3589 4.23152C17.3589 4.06731 17.3589 3.90311 17.3478 3.73891C18.0845 3.19971 18.7302 2.53181 19.245 1.78181Z" fill="black"/>
</svg>
