<svg width="17" height="21" viewBox="0 0 17 21" fill="none" xmlns="http://www.w3.org/2000/svg">
<path d="M12.7857 5.28571C12.7857 6.42236 12.3342 7.51244 11.5305 8.31617C10.7267 9.1199 9.63664 9.57143 8.5 9.57143C7.36336 9.57143 6.27327 9.1199 5.46954 8.31617C4.66581 7.51244 4.21429 6.42236 4.21429 5.28571C4.21429 4.14907 4.66581 3.05898 5.46954 2.25526C6.27327 1.45153 7.36336 1 8.5 1C9.63664 1 10.7267 1.45153 11.5305 2.25526C12.3342 3.05898 12.7857 4.14907 12.7857 5.28571V5.28571ZM8.5 12.7857C6.51088 12.7857 4.60322 13.5759 3.1967 14.9824C1.79018 16.3889 1 18.2966 1 20.2857H16C16 18.2966 15.2098 16.3889 13.8033 14.9824C12.3968 13.5759 10.4891 12.7857 8.5 12.7857V12.7857Z" stroke="white" stroke-linecap="round" stroke-linejoin="round"/>
</svg>
