<svg width="24" height="24" xmlns="http://www.w3.org/2000/svg">
 <title/>
 <desc/>

 <g>
  <title>background</title>
  <rect fill="none" id="canvas_background" height="26" width="26" y="-1" x="-1"/>
 </g>
 <g>
  <title>Layer 1</title>
  <path fill="#ffffff" stroke="null" id="Fill-195" d="m22.810065,7.589277c0,0 -0.2157,-1.520207 -0.877267,-2.189857c-0.83854,-0.878492 -1.779046,-0.882663 -2.210204,-0.934137c-3.086976,-0.223299 -7.717693,-0.223299 -7.717693,-0.223299l-0.009802,0c0,0 -4.63047,0 -7.717693,0.223299c-0.431158,0.051474 -1.371174,0.055645 -2.210204,0.934137c-0.661567,0.66965 -0.876778,2.189857 -0.876778,2.189857c0,0 -0.220601,1.785172 -0.220601,3.570345l0,1.673894c0,1.784925 0.220601,3.570097 0.220601,3.570097c0,0 0.215211,1.520207 0.876778,2.189863c0.839029,0.878734 1.94131,0.850546 2.432278,0.942709c1.765073,0.16938 7.500521,0.221832 7.500521,0.221832c0,0 4.635619,-0.00711 7.722595,-0.230162c0.431158,-0.051474 1.371663,-0.055645 2.210204,-0.934379c0.661567,-0.669655 0.877267,-2.189863 0.877267,-2.189863c0,0 0.220112,-1.785172 0.220112,-3.570097l0,-1.673894c0,-1.785172 -0.220112,-3.570345 -0.220112,-3.570345zm-13.087431,7.272073l-0.000978,-6.198223l5.960709,3.109774l-5.959731,3.088449z"/>
 </g>
</svg>