<svg width="30" height="30" viewBox="0 0 30 30" fill="none" xmlns="http://www.w3.org/2000/svg">
<path d="M3.57133 0C1.60707 0 0 1.60707 0 3.57133V26.4287C0 28.3929 1.60707 30 3.57133 30H26.4287C28.3929 30 30 28.3929 30 26.4287V3.57133C30 1.60707 28.3929 0 26.4287 0H3.57133ZM3.57133 1.42848H8.26993C5.79801 3.99828 4.28571 7.37442 4.28571 11.0715C4.28571 14.9024 5.90685 18.393 8.53515 20.9935C8.44037 20.9012 8.56299 21.0604 8.57424 21.3394C8.58802 21.6294 8.54358 22.0257 8.4263 22.4191C8.19483 23.2061 7.70377 23.9314 6.91682 24.1938C6.60998 24.2971 6.40888 24.5927 6.42857 24.9164C6.45079 25.2401 6.68535 25.5078 7.00345 25.572C8.97306 25.9654 10.3683 25.374 11.3952 24.8995C12.4246 24.4281 12.9801 24.1128 14.0179 24.5313C14.0207 24.5313 14.0235 24.5342 14.0263 24.5342C15.9709 25.293 18.1112 25.7143 20.3573 25.7143C23.3566 25.7143 26.1663 24.9639 28.5715 23.6609V26.4287C28.5715 27.62 27.62 28.5715 26.4287 28.5715H3.57133C2.37995 28.5715 1.42848 27.62 1.42848 26.4287V3.57133C1.42848 2.37995 2.37995 1.42848 3.57133 1.42848ZM10.3543 1.42848H18.3915H26.4287C27.62 1.42848 28.5715 2.37995 28.5715 3.57133V22.0035C26.2335 23.4376 23.4097 24.2858 20.3573 24.2858C18.2923 24.2858 16.3309 23.9008 14.5537 23.2061C13.0442 22.5949 11.8137 23.1363 10.8009 23.6021C10.2511 23.8532 9.70994 24.0625 9.09596 24.1798C9.4 23.7472 9.65959 23.2868 9.79628 22.8264C9.958 22.2825 10.0224 21.7523 10.0027 21.2753C9.98331 20.8036 9.94141 20.3711 9.54231 19.9776H9.5395C7.15392 17.6173 5.71419 14.4977 5.71419 11.0715C5.71419 7.26839 7.48889 3.84752 10.3543 1.42848ZM20.7032 7.84608C20.3098 7.85424 19.9945 8.17796 20.0001 8.57143V15C19.9973 15.2568 20.1312 15.4967 20.3545 15.6278C20.5775 15.7563 20.8512 15.7563 21.0742 15.6278C21.2975 15.4967 21.4314 15.2568 21.4286 15V8.57143C21.4314 8.37877 21.356 8.19202 21.2193 8.05533C21.0826 7.91836 20.8956 7.84327 20.7032 7.84608ZM9.99991 8.57143C9.74341 8.56862 9.50322 8.70249 9.37215 8.92581C9.2439 9.14884 9.2439 9.4225 9.37215 9.64553C9.50322 9.86884 9.74341 10.0027 9.99991 9.99991H12.2851L9.39465 14.6206C9.25768 14.8411 9.24953 15.1201 9.37496 15.3459C9.5004 15.5721 9.74059 15.7144 9.99991 15.7144H13.5715C13.828 15.7172 14.0682 15.583 14.1993 15.36C14.3275 15.1367 14.3275 14.8633 14.1993 14.64C14.0682 14.417 13.828 14.2828 13.5715 14.2856H11.2864L14.1768 9.66522C14.3137 9.44472 14.3219 9.16571 14.1965 8.93959C14.0707 8.71374 13.8308 8.57143 13.5715 8.57143H9.99991ZM18.5604 10.703C18.3233 10.7087 18.1028 10.8316 17.9717 11.0296C17.6173 10.8369 17.2154 10.7143 16.7857 10.7143C15.4129 10.7143 14.2856 11.8415 14.2856 13.2143C14.2856 14.5871 15.4129 15.7144 16.7857 15.7144C17.2154 15.7144 17.6173 15.5915 17.9717 15.3991C18.1447 15.664 18.4737 15.7869 18.7781 15.6947C19.0821 15.5999 19.2913 15.3181 19.2857 15V11.4287C19.2885 11.236 19.2132 11.049 19.0765 10.9123C18.9398 10.7756 18.7527 10.7002 18.5604 10.703ZM24.643 10.7143C23.2702 10.7143 22.143 11.8415 22.143 13.2143C22.143 14.5871 23.2702 15.7144 24.643 15.7144C26.0158 15.7144 27.143 14.5871 27.143 13.2143C27.143 11.8415 26.0158 10.7143 24.643 10.7143ZM16.7857 12.1428C17.3856 12.1428 17.8572 12.6144 17.8572 13.2143C17.8572 13.8142 17.3856 14.2856 16.7857 14.2856C16.1858 14.2856 15.7144 13.8142 15.7144 13.2143C15.7144 12.6144 16.1858 12.1428 16.7857 12.1428ZM24.643 12.1428C25.2429 12.1428 25.7143 12.6144 25.7143 13.2143C25.7143 13.8142 25.2429 14.2856 24.643 14.2856C24.0431 14.2856 23.5714 13.8142 23.5714 13.2143C23.5714 12.6144 24.0431 12.1428 24.643 12.1428Z" fill="black"/>
</svg>
